<svg width="28" height="28" viewBox="0 0 28 28" fill="none" xmlns="http://www.w3.org/2000/svg">
<path fill-rule="evenodd" clip-rule="evenodd" d="M27.3525 7.75024C27.3525 3.7807 24.1346 0.562744 20.165 0.562744C16.1955 0.562744 12.9775 3.7807 12.9775 7.75024C12.9775 8.89833 13.2474 9.98607 13.728 10.951C13.7388 10.9726 13.743 10.99 13.7443 11.0005C13.7449 11.0054 13.7448 11.0084 13.7447 11.0095L13.3728 12.3996C13.0248 13.7004 14.2148 14.8905 15.5157 14.5424L16.9057 14.1705C16.9039 14.171 16.9046 14.1706 16.9057 14.1705C16.9069 14.1704 16.9098 14.1704 16.9147 14.171C16.9253 14.1723 16.9426 14.1765 16.9642 14.1873C17.9292 14.6679 19.0169 14.9377 20.165 14.9377C24.1346 14.9377 27.3525 11.7198 27.3525 7.75024ZM16.9069 14.1702L16.9057 14.1705L16.9069 14.1702ZM20.165 2.43774C23.099 2.43774 25.4775 4.81623 25.4775 7.75024C25.4775 10.6843 23.099 13.0627 20.165 13.0627C19.3135 13.0627 18.5113 12.8631 17.8002 12.5089C17.4011 12.3102 16.9122 12.2278 16.4223 12.3589L15.24 12.6752L15.5563 11.4929C15.6874 11.003 15.6051 10.5141 15.4063 10.1151C15.0522 9.40396 14.8525 8.60176 14.8525 7.75024C14.8525 4.81623 17.231 2.43774 20.165 2.43774Z" fill="white"/>
<path fill-rule="evenodd" clip-rule="evenodd" d="M20.165 4.31274C20.6828 4.31274 21.1025 4.73248 21.1025 5.25024V6.81274H22.665C23.1828 6.81274 23.6025 7.23248 23.6025 7.75024C23.6025 8.26801 23.1828 8.68774 22.665 8.68774H21.1025V10.2502C21.1025 10.768 20.6828 11.1877 20.165 11.1877C19.6472 11.1877 19.2275 10.768 19.2275 10.2502V8.68774H17.665C17.1472 8.68774 16.7275 8.26801 16.7275 7.75024C16.7275 7.23248 17.1472 6.81274 17.665 6.81274H19.2275V5.25024C19.2275 4.73248 19.6472 4.31274 20.165 4.31274Z" fill="white"/>
<path fill-rule="evenodd" clip-rule="evenodd" d="M2.67435 7.00887C4.77444 4.90878 8.31837 5.06843 9.78063 7.68859L10.5919 9.14225C11.5468 10.8533 11.1399 13.0121 9.742 14.4271C9.72338 14.4526 9.62471 14.5963 9.61242 14.8473C9.59674 15.1677 9.71053 15.9087 10.8586 17.0567C12.0062 18.2043 12.7471 18.3184 13.0676 18.3028C13.3189 18.2906 13.4626 18.1919 13.4882 18.1732C14.9031 16.7754 17.062 16.3685 18.773 17.3233L20.2267 18.1346C22.8468 19.5969 23.0065 23.1408 20.9064 25.2409C19.7831 26.3642 18.2894 27.3623 16.5342 27.4289C13.933 27.5275 9.61395 26.8558 5.33672 22.5785C1.05949 18.3013 0.38776 13.9823 0.48637 11.3811C0.552911 9.62584 1.55103 8.13219 2.67435 7.00887ZM8.14335 8.60233C7.39458 7.26065 5.38246 6.95241 4.00018 8.3347C3.03099 9.30388 2.40091 10.3736 2.36002 11.4521C2.27779 13.6213 2.81334 17.4035 6.66255 21.2527C10.5118 25.1019 14.294 25.6375 16.4631 25.5552C17.5416 25.5143 18.6114 24.8843 19.5806 23.9151C20.9628 22.5328 20.6546 20.5207 19.3129 19.7719L17.8593 18.9606C16.955 18.456 15.6848 18.6281 14.7932 19.5197C14.7056 19.6073 14.1481 20.1275 13.1587 20.1756C12.146 20.2249 10.92 19.7698 9.53274 18.3825C8.14498 16.9948 7.69007 15.7685 7.73967 14.7556C7.78811 13.7662 8.30839 13.2092 8.39544 13.1221C9.28709 12.2305 9.45928 10.9603 8.95462 10.056L8.14335 8.60233Z" fill="white"/>
</svg>
