<svg width="28" height="28" viewBox="0 0 28 28" fill="none" xmlns="http://www.w3.org/2000/svg">
<path fill-rule="evenodd" clip-rule="evenodd" d="M13.915 2.43774C7.52925 2.43774 2.35254 7.61445 2.35254 14.0002C2.35254 15.8516 2.78695 17.5987 3.55853 19.1479C3.86822 19.7696 3.98747 20.5131 3.79208 21.2433L3.04757 24.0259C2.91083 24.5369 3.37837 25.0044 3.88941 24.8677L6.67195 24.1232C7.4022 23.9278 8.14567 24.0471 8.76742 24.3567C10.3165 25.1283 12.0637 25.5627 13.915 25.5627C20.3008 25.5627 25.4775 20.386 25.4775 14.0002C25.4775 13.2071 25.3978 12.4335 25.2462 11.6867C25.1432 11.1793 25.4711 10.6845 25.9785 10.5815C26.4859 10.4785 26.9808 10.8063 27.0838 11.3137C27.2601 12.1826 27.3525 13.0811 27.3525 14.0002C27.3525 21.4216 21.3364 27.4377 13.915 27.4377C11.7672 27.4377 9.73444 26.9331 7.93147 26.0351C7.66242 25.9011 7.38771 25.8726 7.15659 25.9345L4.37404 26.679C2.46925 27.1887 0.726631 25.446 1.23628 23.5412L1.98079 20.7587C2.04263 20.5276 2.01421 20.2529 1.8802 19.9838C0.982172 18.1808 0.477539 16.1481 0.477539 14.0002C0.477539 6.57892 6.49371 0.562744 13.915 0.562744C14.8342 0.562744 15.7327 0.655167 16.6015 0.831527C17.109 0.934527 17.4368 1.42937 17.3338 1.93679C17.2308 2.44421 16.736 2.77205 16.2285 2.66905C15.4818 2.51747 14.7082 2.43774 13.915 2.43774ZM17.9775 5.25024C17.9775 2.66141 20.0762 0.562744 22.665 0.562744C25.2539 0.562744 27.3525 2.66141 27.3525 5.25024C27.3525 7.83908 25.2539 9.93774 22.665 9.93774C20.0762 9.93774 17.9775 7.83908 17.9775 5.25024ZM22.665 2.43774C21.1117 2.43774 19.8525 3.69694 19.8525 5.25024C19.8525 6.80354 21.1117 8.06274 22.665 8.06274C24.2183 8.06274 25.4775 6.80354 25.4775 5.25024C25.4775 3.69694 24.2183 2.43774 22.665 2.43774Z" fill="white"/>
</svg>
