<svg width="30" height="30" viewBox="0 0 30 30" fill="none" xmlns="http://www.w3.org/2000/svg">
<path fill-rule="evenodd" clip-rule="evenodd" d="M3.01258 2.67816C5.81269 -0.121955 10.5379 0.0909076 12.4876 3.58445L13.5693 5.52266C14.8425 7.80403 14.2999 10.6825 12.4361 12.5691C12.4113 12.6031 12.2797 12.7947 12.2633 13.1294C12.2424 13.5566 12.3941 14.5445 13.9249 16.0752C15.4551 17.6055 16.4429 17.7576 16.8703 17.7368C17.2052 17.7205 17.397 17.5888 17.431 17.564C19.3176 15.7002 22.1961 15.1576 24.4774 16.4308L26.4157 17.5125C29.9092 19.4622 30.1221 24.1874 27.322 26.9875C25.8242 28.4853 23.8327 29.8161 21.4923 29.9048C18.0241 30.0363 12.2654 29.1407 6.56241 23.4377C0.859435 17.7347 -0.036209 11.976 0.0952703 8.50778C0.183992 6.16745 1.51481 4.17593 3.01258 2.67816ZM10.3046 4.80277C9.30622 3.01386 6.6234 2.60288 4.78035 4.44593C3.4881 5.73817 2.64799 7.16453 2.59348 8.60249C2.48383 11.4947 3.1979 16.5377 8.33018 21.6699C13.4625 26.8022 18.5054 27.5163 21.3976 27.4066C22.8356 27.3521 24.2619 26.512 25.5542 25.2198C27.3972 23.3767 26.9862 20.6939 25.1973 19.6955L23.2591 18.6138C22.0535 17.941 20.3599 18.1705 19.171 19.3593L19.1707 19.3597C19.0539 19.4764 18.3109 20.1696 16.9918 20.2338C15.6414 20.2995 14.0068 19.6928 12.1571 17.843C10.3067 15.9927 9.70021 14.3577 9.76633 13.0071C9.83092 11.6879 10.5246 10.9452 10.6407 10.8292L10.6408 10.8291C11.8296 9.64024 12.0591 7.94667 11.3863 6.74099L10.3046 4.80277Z" fill="white"/>
</svg>
