<svg width="25" height="24" viewBox="0 0 25 24" fill="none" xmlns="http://www.w3.org/2000/svg">
<path d="M19.915 4.99976L15.915 8.99976M15.915 8.99976V5.99976M15.915 8.99976H18.915" stroke="#FF8181" stroke-width="1.5" stroke-linecap="round" stroke-linejoin="round"/>
<path d="M10.9526 5.31593L11.6016 6.47886C12.1873 7.52834 11.9522 8.90508 11.0298 9.82755C11.0297 9.82756 11.0297 9.82756 11.0297 9.82756C11.0296 9.82767 9.91092 10.9466 11.9396 12.9752C13.9675 15.0032 15.0864 13.8859 15.0872 13.885C15.0873 13.885 15.0872 13.885 15.0873 13.885C16.0097 12.9626 17.3865 12.7275 18.4359 13.3132L19.5989 13.9622C21.1836 14.8466 21.3708 17.069 19.9778 18.4619C19.1408 19.299 18.1154 19.9502 16.982 19.9932C15.0738 20.0655 11.8333 19.5826 8.58274 16.3321C5.33217 13.0815 4.84925 9.84098 4.92159 7.93284C4.96456 6.79936 5.61584 5.77399 6.45284 4.93699C7.84579 3.54404 10.0682 3.73119 10.9526 5.31593Z" stroke="#FF8181" stroke-width="1.5" stroke-linecap="round"/>
</svg>
