<svg width="25" height="24" viewBox="0 0 25 24" fill="none" xmlns="http://www.w3.org/2000/svg">
<path d="M15.915 9L19.915 5M19.915 5V8M19.915 5H16.915" stroke="black" stroke-width="1.5" stroke-linecap="round" stroke-linejoin="round"/>
<path d="M10.9526 5.31617L11.6016 6.4791C12.1873 7.52858 11.9522 8.90532 11.0298 9.8278C11.0297 9.8278 11.0297 9.8278 11.0297 9.8278C11.0296 9.82792 9.91092 10.9468 11.9396 12.9755C13.9675 15.0035 15.0864 13.8861 15.0872 13.8853C15.0873 13.8853 15.0872 13.8853 15.0873 13.8853C16.0097 12.9628 17.3865 12.7277 18.4359 13.3134L19.5989 13.9624C21.1836 14.8468 21.3708 17.0692 19.9778 18.4622C19.1408 19.2992 18.1154 19.9505 16.982 19.9934C15.0738 20.0658 11.8333 19.5829 8.58274 16.3323C5.33217 13.0817 4.84925 9.84122 4.92159 7.93309C4.96456 6.7996 5.61584 5.77423 6.45284 4.93723C7.84579 3.54428 10.0682 3.73144 10.9526 5.31617Z" stroke="black" stroke-width="1.5" stroke-linecap="round"/>
</svg>
