<svg width="22" height="18" viewBox="0 0 22 18" fill="none" xmlns="http://www.w3.org/2000/svg">
<path fill-rule="evenodd" clip-rule="evenodd" d="M17.25 4.19141C17.25 6.26247 15.5711 7.94141 13.5 7.94141C11.4289 7.94141 9.75 6.26247 9.75 4.19141C9.75 2.12034 11.4289 0.441406 13.5 0.441406C15.5711 0.441406 17.25 2.12034 17.25 4.19141ZM13.5 6.44141C14.7426 6.44141 15.75 5.43405 15.75 4.19141C15.75 2.94877 14.7426 1.94141 13.5 1.94141C12.2574 1.94141 11.25 2.94877 11.25 4.19141C11.25 5.43405 12.2574 6.44141 13.5 6.44141Z" fill="black"/>
<path fill-rule="evenodd" clip-rule="evenodd" d="M4.75 14.1914C4.75 16.2625 6.42893 17.9414 8.5 17.9414C10.5711 17.9414 12.25 16.2625 12.25 14.1914C12.25 12.1203 10.5711 10.4414 8.5 10.4414C6.42893 10.4414 4.75 12.1203 4.75 14.1914ZM8.5 16.4414C7.25736 16.4414 6.25 15.434 6.25 14.1914C6.25 12.9488 7.25736 11.9414 8.5 11.9414C9.74264 11.9414 10.75 12.9488 10.75 14.1914C10.75 15.434 9.74264 16.4414 8.5 16.4414Z" fill="black"/>
<path d="M13.25 14.1499C13.25 13.7357 13.5858 13.3999 14 13.3999H21C21.4142 13.3999 21.75 13.7357 21.75 14.1499C21.75 14.5641 21.4142 14.8999 21 14.8999H14C13.5858 14.8999 13.25 14.5641 13.25 14.1499Z" fill="black"/>
<path d="M8 3.39993C8.41421 3.39993 8.75 3.73571 8.75 4.14993C8.75 4.56414 8.41421 4.89993 8 4.89993L1 4.89993C0.585786 4.89993 0.25 4.56414 0.25 4.14993C0.25 3.73571 0.585786 3.39993 1 3.39993L8 3.39993Z" fill="black"/>
<path d="M0.25 14.1499C0.25 13.7357 0.585787 13.3999 1 13.3999H3C3.41421 13.3999 3.75 13.7357 3.75 14.1499C3.75 14.5641 3.41421 14.8999 3 14.8999H1C0.585787 14.8999 0.25 14.5641 0.25 14.1499Z" fill="black"/>
<path d="M21 3.39993C21.4142 3.39993 21.75 3.73571 21.75 4.14993C21.75 4.56414 21.4142 4.89993 21 4.89993H19C18.5858 4.89993 18.25 4.56414 18.25 4.14993C18.25 3.73571 18.5858 3.39993 19 3.39993H21Z" fill="black"/>
</svg>
