<svg width="22" height="20" viewBox="0 0 22 20" fill="none" xmlns="http://www.w3.org/2000/svg">
<path fill-rule="evenodd" clip-rule="evenodd" d="M4.5394 2.42435C2.88041 3.18268 1.66504 4.98639 1.66504 7.13725C1.66504 9.33465 2.56426 11.0284 3.85332 12.4799C4.91576 13.6763 6.20188 14.6678 7.45616 15.6348C7.75407 15.8644 8.05019 16.0927 8.34108 16.322C8.86712 16.7367 9.33636 17.1007 9.78865 17.365C10.2412 17.6294 10.6054 17.7502 10.915 17.7502C11.2246 17.7502 11.5889 17.6294 12.0414 17.365C12.4937 17.1007 12.963 16.7367 13.489 16.322C13.7799 16.0927 14.076 15.8644 14.3739 15.6348C15.6282 14.6678 16.9143 13.6763 17.9768 12.4799C19.2658 11.0284 20.165 9.33465 20.165 7.13725C20.165 4.98639 18.9497 3.18268 17.2907 2.42435C15.679 1.68763 13.5134 1.88273 11.4554 4.02089C11.314 4.16778 11.1189 4.25079 10.915 4.25079C10.7112 4.25079 10.5161 4.16778 10.3747 4.02089C8.3167 1.88273 6.15111 1.68763 4.5394 2.42435ZM10.915 2.45897C8.60299 0.390397 6.014 0.101025 3.9158 1.06012C1.69975 2.07308 0.165039 4.42519 0.165039 7.13725C0.165039 9.80279 1.27554 11.8362 2.73176 13.476C3.89791 14.7891 5.32526 15.8881 6.58586 16.8587C6.87163 17.0788 7.14882 17.2922 7.41246 17.5C7.92469 17.9038 8.47458 18.3344 9.03186 18.6601C9.5889 18.9856 10.2246 19.2502 10.915 19.2502C11.6054 19.2502 12.2412 18.9856 12.7982 18.6601C13.3555 18.3344 13.9054 17.9038 14.4176 17.5C14.6813 17.2922 14.9585 17.0788 15.2442 16.8587C16.5048 15.8881 17.9322 14.7891 19.0983 13.476C20.5545 11.8362 21.665 9.80279 21.665 7.13725C21.665 4.42519 20.1303 2.07308 17.9143 1.06012C15.8161 0.101025 13.2271 0.390397 10.915 2.45897Z" fill="black"/>
</svg>
