<svg width="22" height="22" viewBox="0 0 22 22" fill="none" xmlns="http://www.w3.org/2000/svg">
<path fill-rule="evenodd" clip-rule="evenodd" d="M10.915 1.75024C5.80641 1.75024 1.66504 5.89161 1.66504 11.0002C1.66504 16.1089 5.80641 20.2502 10.915 20.2502C16.0237 20.2502 20.165 16.1089 20.165 11.0002C20.165 5.89161 16.0237 1.75024 10.915 1.75024ZM0.165039 11.0002C0.165039 5.06318 4.97798 0.250244 10.915 0.250244C16.8521 0.250244 21.665 5.06318 21.665 11.0002C21.665 16.9373 16.8521 21.7502 10.915 21.7502C4.97798 21.7502 0.165039 16.9373 0.165039 11.0002ZM8.88471 7.46991C9.1776 7.17702 9.65248 7.17702 9.94537 7.46991L12.9454 10.4699C13.2383 10.7628 13.2383 11.2377 12.9454 11.5306L9.94537 14.5306C9.65248 14.8235 9.1776 14.8235 8.88471 14.5306C8.59182 14.2377 8.59182 13.7628 8.88471 13.4699L11.3544 11.0002L8.88471 8.53057C8.59182 8.23768 8.59182 7.76281 8.88471 7.46991Z" fill="black"/>
</svg>
