<svg width="20" height="22" viewBox="0 0 20 22" fill="none" xmlns="http://www.w3.org/2000/svg">
<path d="M6.91504 4.25025C6.50083 4.25025 6.16504 4.58603 6.16504 5.00025C6.16504 5.41446 6.50083 5.75025 6.91504 5.75025H12.915C13.3293 5.75025 13.665 5.41446 13.665 5.00025C13.665 4.58603 13.3293 4.25025 12.915 4.25025H6.91504Z" fill="black"/>
<path fill-rule="evenodd" clip-rule="evenodd" d="M9.85754 0.250244C7.78498 0.25023 6.15219 0.250218 4.87632 0.423614C3.56625 0.601656 2.52113 0.974929 1.69988 1.80508C0.879733 2.63411 0.511959 3.68726 0.336339 5.00766C0.165015 6.29576 0.165026 7.94486 0.165039 10.0413V15.1393C0.165029 16.6468 0.16502 17.8404 0.261049 18.7391C0.35595 19.6271 0.559513 20.4283 1.14088 20.9641C1.6073 21.3939 2.19715 21.6649 2.82669 21.7369C3.61416 21.827 4.34943 21.451 5.07372 20.938C5.80667 20.4188 6.69579 19.6324 7.81758 18.6401L7.85409 18.6079C8.37416 18.1479 8.72626 17.8374 9.02003 17.6226C9.30395 17.415 9.47731 17.34 9.62342 17.3105C9.81596 17.2718 10.0141 17.2718 10.2067 17.3105C10.3528 17.34 10.5261 17.415 10.81 17.6226C11.1038 17.8374 11.4559 18.1479 11.976 18.6079L12.0126 18.6402C13.1343 19.6324 14.0234 20.4188 14.7564 20.938C15.4806 21.451 16.2159 21.827 17.0034 21.7369C17.6329 21.6649 18.2228 21.3939 18.6892 20.9641C19.2706 20.4283 19.4741 19.6271 19.569 18.7391C19.6651 17.8404 19.6651 16.6468 19.665 15.1393V10.0413C19.6651 7.94487 19.6651 6.29574 19.4937 5.00766C19.3181 3.68726 18.9503 2.63411 18.1302 1.80508C17.3089 0.974929 16.2638 0.601656 14.9538 0.423614C13.6779 0.250218 12.0451 0.25023 9.97254 0.250244H9.85754ZM2.76624 2.86001C3.26301 2.35786 3.93755 2.06498 5.07832 1.90995C6.24149 1.75187 7.77229 1.75024 9.91504 1.75024C12.0578 1.75024 13.5886 1.75187 14.7518 1.90995C15.8925 2.06498 16.5671 2.35786 17.0638 2.86001C17.5617 3.36328 17.8529 4.04843 18.0068 5.20542C18.1635 6.38316 18.165 7.93248 18.165 10.0978V15.0912C18.165 16.6574 18.164 17.7704 18.0775 18.5797C17.9889 19.409 17.8254 19.7203 17.6727 19.861C17.4389 20.0765 17.1449 20.2109 16.8329 20.2466C16.6332 20.2695 16.2986 20.1922 15.6234 19.7139C14.9648 19.2474 14.1362 18.5159 12.9698 17.4843L12.9436 17.4611C12.4563 17.0302 12.0522 16.6727 11.6954 16.4118C11.3225 16.1391 10.9463 15.9294 10.5029 15.8401C10.1148 15.7619 9.71526 15.7619 9.32722 15.8401C8.8838 15.9294 8.50763 16.1391 8.13464 16.4118C7.77787 16.6727 7.37375 17.0301 6.88649 17.4611L6.86031 17.4843C5.69391 18.5159 4.8653 19.2474 4.20669 19.7139C3.53149 20.1922 3.19686 20.2695 2.99722 20.2466C2.68523 20.2109 2.39121 20.0765 2.15741 19.861C2.00467 19.7203 1.84118 19.409 1.75256 18.5797C1.66608 17.7704 1.66504 16.6574 1.66504 15.0912V10.0978C1.66504 7.93248 1.6666 6.38316 1.82324 5.20542C1.97713 4.04843 2.26837 3.36328 2.76624 2.86001Z" fill="black"/>
</svg>
