<svg width="22" height="21" viewBox="0 0 22 21" fill="none" xmlns="http://www.w3.org/2000/svg">
<path fill-rule="evenodd" clip-rule="evenodd" d="M18.0588 1.63107C16.8888 1.8392 15.3114 2.36286 13.0977 3.10076L8.08645 4.77118C6.30643 5.36452 5.01714 5.79493 4.1065 6.18224C3.15443 6.58718 2.81575 6.86943 2.70575 7.05864C2.36695 7.64143 2.36695 8.3612 2.70575 8.94398C2.81575 9.13319 3.15443 9.41545 4.1065 9.82038C5.01714 10.2077 6.30642 10.6381 8.08645 11.2314C8.11456 11.2408 8.14231 11.25 8.16972 11.2592C8.54935 11.3854 8.86299 11.4898 9.13702 11.6331L14.4604 6.36836C14.7621 6.06998 15.2486 6.07268 15.5469 6.37438C15.8453 6.67608 15.8426 7.16254 15.5409 7.46091L10.241 12.7024C10.4062 12.9942 10.518 13.3305 10.6561 13.7456C10.6652 13.773 10.6745 13.8007 10.6838 13.8288C11.2772 15.6089 11.7076 16.8981 12.0949 17.8088C12.4998 18.7609 12.7821 19.0995 12.9713 19.2095C13.5541 19.5483 14.2739 19.5483 14.8566 19.2095C15.0459 19.0995 15.3281 18.7609 15.733 17.8088C16.1204 16.8981 16.5508 15.6089 17.1441 13.8288L18.8145 8.81756C19.5524 6.60388 20.0761 5.02652 20.2842 3.85654C20.4933 2.68099 20.3335 2.18164 20.0336 1.8817C19.7336 1.58177 19.2343 1.42195 18.0588 1.63107ZM17.7896 0.118214C19.0918 -0.113436 20.2646 -0.0603432 21.1201 0.795154C21.9756 1.65065 22.0287 2.82346 21.7971 4.12566C21.5668 5.41999 21.0053 7.10439 20.2945 9.23693L18.5895 14.3517C18.0111 16.0871 17.5616 17.4356 17.1471 18.4102C16.7472 19.3503 16.3033 20.1459 15.6289 20.538C14.5687 21.1543 13.2592 21.1543 12.199 20.538C11.5247 20.1459 11.0807 19.3503 10.6809 18.4102C10.2664 17.4356 9.81688 16.0872 9.23842 14.3518L9.22608 14.3148C9.02342 13.7068 8.96164 13.5418 8.87413 13.4111C8.77618 13.2648 8.65049 13.1391 8.50417 13.0412C8.37344 12.9536 8.20852 12.8919 7.60053 12.6892L7.56349 12.6769C5.8281 12.0984 4.47967 11.6489 3.50508 11.2344C2.565 10.8346 1.76935 10.3906 1.37732 9.71627C0.760946 8.65604 0.760947 7.34659 1.37732 6.28635C1.76935 5.61201 2.565 5.16805 3.50509 4.76821C4.47968 4.3537 5.82813 3.90422 7.56356 3.32575L12.6784 1.62081C14.8109 0.909943 16.4953 0.348463 17.7896 0.118214Z" fill="black"/>
</svg>
