<svg width="25" height="24" viewBox="0 0 25 24" fill="none" xmlns="http://www.w3.org/2000/svg">
<path d="M9.91504 16C10.7654 16.6303 11.7996 17 12.915 17C14.0305 17 15.0647 16.6303 15.915 16" stroke="black" stroke-width="1.5" stroke-linecap="round"/>
<ellipse cx="15.915" cy="10.5" rx="1" ry="1.5" fill="black"/>
<ellipse cx="9.91504" cy="10.5" rx="1" ry="1.5" fill="black"/>
<path d="M15.915 22H12.915C8.20099 22 5.84397 22 4.37951 20.5355C2.91504 19.0711 2.91504 16.714 2.91504 12C2.91504 7.28595 2.91504 4.92893 4.37951 3.46447C5.84397 2 8.20099 2 12.915 2C17.6291 2 19.9861 2 21.4506 3.46447C22.915 4.92893 22.915 7.28595 22.915 12V15M15.915 22C19.781 22 22.915 18.866 22.915 15M15.915 22C15.915 20.1387 15.915 19.2081 16.1598 18.4549C16.6543 16.9327 17.8478 15.7393 19.37 15.2447C20.1231 15 21.0538 15 22.915 15" stroke="black" stroke-width="1.5"/>
</svg>
