<svg width="46" height="38" viewBox="0 0 46 38" fill="none" xmlns="http://www.w3.org/2000/svg">
<path d="M32.1328 25.5512C32.8741 25.1094 33.1168 24.1503 32.675 23.409C32.2332 22.6678 31.2742 22.425 30.5329 22.8668L22.1996 27.8336C21.4583 28.2754 21.2155 29.2345 21.6573 29.9758C22.0991 30.717 23.0582 30.9598 23.7995 30.518L32.1328 25.5512Z" fill="black"/>
<path fill-rule="evenodd" clip-rule="evenodd" d="M20.5816 1.37589C21.3548 1.01527 22.1267 0.771484 22.9995 0.771484C23.8723 0.771484 24.6442 1.01527 25.4174 1.37589C26.1435 1.71453 26.9711 2.20649 27.944 2.78486L34.2344 6.52399C35.208 7.10264 36.0354 7.59445 36.6826 8.07203C36.9958 8.30312 37.2866 8.54466 37.5508 8.81077L42.9661 5.20057C43.6841 4.7219 44.6543 4.91592 45.1329 5.63393C45.6116 6.35195 45.4176 7.32205 44.6996 7.80073L38.9746 11.6174C39.015 11.845 39.045 12.0771 39.0677 12.3144C39.1454 13.1257 39.1454 14.105 39.1453 15.2655V22.7358C39.1454 23.8963 39.1454 24.8756 39.0677 25.6869C38.9854 26.5471 38.8075 27.3389 38.3817 28.0982C37.9545 28.8599 37.3728 29.42 36.6826 29.9293C36.0354 30.4069 35.208 30.8986 34.2344 31.4773L27.9441 35.2164C26.9713 35.7947 26.1434 36.2868 25.4174 36.6254C24.6442 36.986 23.8723 37.2298 22.9995 37.2298C22.1267 37.2298 21.3548 36.986 20.5816 36.6254C19.8556 36.2868 19.0282 35.7949 18.0554 35.2167L11.7646 31.4773C10.791 30.8986 9.96366 30.4069 9.31642 29.9293C9.00325 29.6982 8.7124 29.4566 8.44819 29.1905L3.0329 32.8007C2.31489 33.2794 1.34478 33.0854 0.866103 32.3674C0.387427 31.6494 0.581449 30.6792 1.29946 30.2006L7.02446 26.3839C6.984 26.1563 6.95402 25.9242 6.9313 25.6869C6.85362 24.8756 6.85365 23.8963 6.85368 22.7359V15.2654C6.85365 14.105 6.85362 13.1257 6.9313 12.3144C6.95402 12.0771 6.984 11.845 7.02446 11.6174L1.29946 7.80073C0.581449 7.32205 0.387427 6.35195 0.866103 5.63393C1.34478 4.91592 2.31489 4.7219 3.0329 5.20057L8.44819 8.81077C8.7124 8.54466 9.00325 8.30312 9.31642 8.07203C9.96367 7.59443 10.791 7.10266 11.7646 6.52397L18.055 2.78486C19.028 2.20648 19.8555 1.71453 20.5816 1.37589ZM21.9025 4.20802C21.3351 4.47265 20.642 4.88252 19.588 5.509L13.4244 9.17278C12.3708 9.79905 11.679 10.2124 11.1719 10.5866C10.6938 10.9394 10.4799 11.1875 10.343 11.4316C10.2049 11.678 10.1007 11.9998 10.0421 12.6122C9.98033 13.2571 9.97868 14.0861 9.97868 15.3369V22.6644C9.97868 23.9152 9.98033 24.7442 10.0421 25.3891C10.1007 26.0016 10.2049 26.3233 10.343 26.5697C10.4799 26.8138 10.6938 27.0619 11.1719 27.4148C11.679 27.789 12.3708 28.2023 13.4244 28.8285L19.588 32.4923C20.642 33.1188 21.3351 33.5287 21.9025 33.7933C22.4385 34.0433 22.7443 34.1048 22.9995 34.1048C23.2547 34.1048 23.5605 34.0433 24.0966 33.7933C24.664 33.5287 25.357 33.1188 26.411 32.4923L32.5746 28.8285C33.6282 28.2023 34.32 27.789 34.8271 27.4148C35.3053 27.0619 35.5191 26.8138 35.656 26.5697C35.7942 26.3233 35.8983 26.0016 35.957 25.3891C36.0187 24.7442 36.0203 23.9152 36.0203 22.6644V15.3369C36.0203 14.0861 36.0187 13.2571 35.957 12.6122C35.8983 11.9998 35.7942 11.678 35.656 11.4316C35.5191 11.1875 35.3053 10.9394 34.8271 10.5866C34.32 10.2124 33.6282 9.79905 32.5746 9.17278L26.411 5.509C25.357 4.88252 24.664 4.47265 24.0966 4.20802C23.5605 3.95802 23.2547 3.89648 22.9995 3.89648C22.7443 3.89648 22.4385 3.95802 21.9025 4.20802Z" fill="black"/>
</svg>
