<svg width="15" height="16" viewBox="0 0 15 16" fill="none" xmlns="http://www.w3.org/2000/svg">
<path d="M5.9084 2.35933C6.14033 1.70315 6.76615 1.23438 7.50002 1.23438C8.23389 1.23438 8.85972 1.70315 9.09165 2.35933C9.19517 2.65223 9.51654 2.80575 9.80944 2.70222C10.1023 2.5987 10.2559 2.27733 10.1523 1.98442C9.76651 0.892815 8.72548 0.109375 7.50002 0.109375C6.27456 0.109375 5.23353 0.892815 4.84771 1.98442C4.74418 2.27733 4.8977 2.5987 5.1906 2.70222C5.4835 2.80575 5.80487 2.65223 5.9084 2.35933Z" fill="black"/>
<path d="M0.5625 3.67188C0.5625 3.36122 0.81434 3.10938 1.125 3.10938H13.8751C14.1857 3.10938 14.4376 3.36122 14.4376 3.67188C14.4376 3.98254 14.1857 4.23438 13.8751 4.23438H1.125C0.81434 4.23438 0.5625 3.98254 0.5625 3.67188Z" fill="black"/>
<path d="M2.33764 4.98562C2.64761 4.96495 2.91565 5.19948 2.93631 5.50946L3.28127 10.6838C3.34866 11.6947 3.39668 12.398 3.50211 12.9273C3.60437 13.4406 3.74712 13.7123 3.95218 13.9042C4.15724 14.096 4.43786 14.2204 4.95686 14.2883C5.49191 14.3582 6.19692 14.3594 7.21005 14.3594H7.79007C8.8032 14.3594 9.50821 14.3582 10.0433 14.2883C10.5623 14.2204 10.8429 14.096 11.0479 13.9042C11.253 13.7123 11.3957 13.4406 11.498 12.9273C11.6034 12.398 11.6515 11.6947 11.7188 10.6838L12.0638 5.50946C12.0845 5.19948 12.3525 4.96495 12.6625 4.98562C12.9724 5.00628 13.207 5.27432 13.1863 5.58429L12.8387 10.7981C12.7746 11.7602 12.7228 12.5373 12.6013 13.1471C12.475 13.781 12.2602 14.3106 11.8165 14.7257C11.3728 15.1408 10.8302 15.3199 10.1892 15.4038C9.57265 15.4844 8.79381 15.4844 7.82962 15.4844H7.1705C6.20631 15.4844 5.42747 15.4844 4.81094 15.4038C4.16996 15.3199 3.6273 15.1408 3.1836 14.7257C2.7399 14.3106 2.52509 13.781 2.39879 13.1471C2.27731 12.5373 2.22551 11.7601 2.16139 10.7981L1.81381 5.58429C1.79314 5.27432 2.02767 5.00628 2.33764 4.98562Z" fill="black"/>
</svg>
