<svg width="25" height="24" viewBox="0 0 25 24" fill="none" xmlns="http://www.w3.org/2000/svg">
<path fill-rule="evenodd" clip-rule="evenodd" d="M12.915 2.75C7.80641 2.75 3.66504 6.89137 3.66504 12C3.66504 17.1086 7.80641 21.25 12.915 21.25C18.0237 21.25 22.165 17.1086 22.165 12C22.165 6.89137 18.0237 2.75 12.915 2.75ZM2.16504 12C2.16504 6.06294 6.97798 1.25 12.915 1.25C18.8521 1.25 23.665 6.06294 23.665 12C23.665 17.9371 18.8521 22.75 12.915 22.75C6.97798 22.75 2.16504 17.9371 2.16504 12ZM9.38471 10.4697L12.3847 7.46967C12.6776 7.17678 13.1525 7.17678 13.4454 7.46967L16.4454 10.4697C16.7383 10.7626 16.7383 11.2374 16.4454 11.5303C16.1525 11.8232 15.6776 11.8232 15.3847 11.5303L13.665 9.81066V16C13.665 16.4142 13.3293 16.75 12.915 16.75C12.5008 16.75 12.165 16.4142 12.165 16V9.81066L10.4454 11.5303C10.1525 11.8232 9.6776 11.8232 9.38471 11.5303C9.09182 11.2374 9.09182 10.7626 9.38471 10.4697Z" fill="black"/>
</svg>
