<svg width="17" height="16" viewBox="0 0 17 16" fill="none" xmlns="http://www.w3.org/2000/svg">
<path d="M8.49999 4.60938C8.81065 4.60938 9.06249 4.86121 9.06249 5.17188V8.92188C9.06249 9.23253 8.81065 9.48438 8.49999 9.48438C8.18933 9.48438 7.93749 9.23253 7.93749 8.92188V5.17188C7.93749 4.86121 8.18933 4.60938 8.49999 4.60938Z" fill="black"/>
<path d="M8.49999 11.9219C8.9142 11.9219 9.24999 11.5861 9.24999 11.1719C9.24999 10.7577 8.9142 10.4219 8.49999 10.4219C8.08577 10.4219 7.74999 10.7577 7.74999 11.1719C7.74999 11.5861 8.08577 11.9219 8.49999 11.9219Z" fill="black"/>
<path fill-rule="evenodd" clip-rule="evenodd" d="M5.7208 2.5292C6.52473 1.50807 7.37636 0.859375 8.49998 0.859375C9.6236 0.859375 10.4752 1.50807 11.2792 2.5292C12.0698 3.53345 12.9077 5.01904 13.9797 6.91978L14.3063 7.49888C15.1925 9.0701 15.8925 10.3111 16.2601 11.3072C16.6358 12.3251 16.7251 13.2493 16.1567 14.0646C15.6052 14.8557 14.685 15.1794 13.5244 15.3322C12.3682 15.4844 10.8134 15.4844 8.81862 15.4844H8.18138C6.18664 15.4844 4.63179 15.4844 3.47561 15.3322C2.31498 15.1794 1.39477 14.8557 0.843242 14.0646C0.274885 13.2493 0.364137 12.3251 0.739851 11.3072C1.1075 10.3111 1.80744 9.07012 2.69364 7.4989L3.02021 6.91987C4.09225 5.01909 4.93014 3.53347 5.7208 2.5292ZM6.60473 3.22511C5.87422 4.15298 5.07778 5.56178 3.97371 7.51933L3.70097 8.00291C2.7813 9.63351 2.12776 10.7959 1.79525 11.6967C1.46703 12.586 1.51253 13.0575 1.76611 13.4212C2.03652 13.8091 2.54405 14.0749 3.62244 14.2168C4.69644 14.3582 6.17695 14.3594 8.22724 14.3594H8.77273C10.823 14.3594 12.3035 14.3582 13.3775 14.2168C14.4559 14.0749 14.9635 13.8091 15.2339 13.4212C15.4874 13.0575 15.5329 12.586 15.2047 11.6967C14.8722 10.7959 14.2187 9.6335 13.299 8.00291L13.0263 7.51932C11.9222 5.56178 11.1257 4.15298 10.3952 3.22511C9.67152 2.30587 9.10942 1.98438 8.49998 1.98438C7.89054 1.98438 7.32845 2.30587 6.60473 3.22511Z" fill="black"/>
</svg>
