<svg width="17" height="17" viewBox="0 0 17 17" fill="none" xmlns="http://www.w3.org/2000/svg">
<path fill-rule="evenodd" clip-rule="evenodd" d="M8.5 0.109375C4.0472 0.109375 0.4375 3.71908 0.4375 8.17188C0.4375 12.6247 4.0472 16.2344 8.5 16.2344C12.9528 16.2344 16.5625 12.6247 16.5625 8.17188C16.5625 3.71908 12.9528 0.109375 8.5 0.109375ZM1.5625 8.17188C1.5625 4.3404 4.66852 1.23438 8.5 1.23438C10.2134 1.23438 11.7817 1.8555 12.992 2.88487C12.987 2.88952 12.9821 2.89427 12.9773 2.89913L3.22727 12.649C3.22238 12.6538 3.2176 12.6588 3.21292 12.6638C2.1836 11.4535 1.5625 9.88521 1.5625 8.17188ZM4.00787 13.4588C5.21824 14.4882 6.78658 15.1094 8.5 15.1094C12.3315 15.1094 15.4375 12.0034 15.4375 8.17188C15.4375 6.4585 14.8164 4.89019 13.787 3.67984C13.7824 3.68484 13.7776 3.68977 13.7727 3.69463L4.02276 13.4445C4.01786 13.4493 4.0129 13.4541 4.00787 13.4588Z" fill="black"/>
</svg>
