<svg width="17" height="19" viewBox="0 0 17 19" fill="none" xmlns="http://www.w3.org/2000/svg">
<path fill-rule="evenodd" clip-rule="evenodd" d="M10.875 0.989502H7.66367C6.20878 0.98949 5.0564 0.98948 4.15452 1.11073C3.22636 1.23552 2.47511 1.49845 1.88265 2.0909C1.2902 2.68336 1.02727 3.43461 0.902482 4.36278C0.781228 5.26465 0.781238 6.41703 0.78125 7.87191V12.6666C0.78125 14.1488 1.86746 15.3773 3.28728 15.5995C3.39651 16.2043 3.60554 16.7206 4.02578 17.1408C4.5023 17.6173 5.10228 17.8223 5.81486 17.9181C6.50121 18.0104 7.37388 18.0104 8.45656 18.0103H10.9184C12.0011 18.0104 12.8738 18.0104 13.5601 17.9181C14.2727 17.8223 14.8727 17.6173 15.3492 17.1408C15.8257 16.6643 16.0307 16.0643 16.1265 15.3517C16.2188 14.6654 16.2188 13.7927 16.2188 12.71V8.66481C16.2188 7.58214 16.2188 6.70947 16.1265 6.02312C16.0307 5.31053 15.8257 4.71055 15.3492 4.23403C14.929 3.81379 14.4127 3.60476 13.8079 3.49553C13.5857 2.07571 12.3572 0.989502 10.875 0.989502ZM12.5607 3.38126C12.321 2.68069 11.6568 2.177 10.875 2.177H7.70833C6.19877 2.177 5.12632 2.17826 4.31276 2.28764C3.51627 2.39473 3.05738 2.59555 2.72234 2.93059C2.3873 3.26563 2.18648 3.72452 2.07939 4.52101C1.97001 5.33457 1.96875 6.40702 1.96875 7.91658V12.6666C1.96875 13.4484 2.47244 14.1126 3.17301 14.3523C3.15623 13.8694 3.15624 13.3234 3.15625 12.71V8.66481C3.15623 7.58213 3.15622 6.70947 3.2485 6.02312C3.3443 5.31053 3.54926 4.71055 4.02578 4.23403C4.5023 3.75751 5.10228 3.55255 5.81486 3.45675C6.50121 3.36447 7.37388 3.36449 8.45656 3.3645H10.9184C11.5318 3.36449 12.0778 3.36448 12.5607 3.38126ZM4.86547 5.07372C5.08457 4.85461 5.39219 4.71176 5.9731 4.63366C6.57108 4.55326 7.36363 4.552 8.5 4.552H10.875C12.0114 4.552 12.8039 4.55326 13.4019 4.63366C13.9828 4.71176 14.2904 4.85461 14.5095 5.07372C14.7286 5.29282 14.8715 5.60044 14.9496 6.18135C15.03 6.77933 15.0312 7.57188 15.0312 8.70825V12.6666C15.0312 13.803 15.03 14.5955 14.9496 15.1935C14.8715 15.7744 14.7286 16.082 14.5095 16.3011C14.2904 16.5202 13.9828 16.6631 13.4019 16.7412C12.8039 16.8216 12.0114 16.8228 10.875 16.8228H8.5C7.36363 16.8228 6.57108 16.8216 5.9731 16.7412C5.39219 16.6631 5.08457 16.5202 4.86547 16.3011C4.64636 16.082 4.50351 15.7744 4.42541 15.1935C4.34501 14.5955 4.34375 13.803 4.34375 12.6666V8.70825C4.34375 7.57188 4.34501 6.77933 4.42541 6.18135C4.50351 5.60044 4.64636 5.29282 4.86547 5.07372Z" fill="black"/>
</svg>
