<svg width="17" height="19" viewBox="0 0 17 19" fill="none" xmlns="http://www.w3.org/2000/svg">
<path d="M6.125 4.15617C5.79708 4.15617 5.53125 4.422 5.53125 4.74992C5.53125 5.07784 5.79708 5.34367 6.125 5.34367H10.875C11.2029 5.34367 11.4688 5.07784 11.4688 4.74992C11.4688 4.422 11.2029 4.15617 10.875 4.15617H6.125Z" fill="black"/>
<path fill-rule="evenodd" clip-rule="evenodd" d="M8.45448 0.989502C6.8137 0.989491 5.52108 0.989481 4.51101 1.12675C3.47388 1.2677 2.64649 1.56321 1.99633 2.22041C1.34705 2.87673 1.05589 3.71047 0.916863 4.75579C0.781231 5.77553 0.781239 7.08108 0.78125 8.74077V12.7766C0.781242 13.9701 0.781235 14.9151 0.857258 15.6265C0.932387 16.3295 1.09354 16.9638 1.55379 17.3879C1.92304 17.7282 2.39 17.9428 2.88839 17.9998C3.5118 18.0711 4.09389 17.7734 4.66729 17.3673C5.24754 16.9563 5.95143 16.3337 6.83951 15.5482L6.86841 15.5226C7.28013 15.1585 7.55888 14.9127 7.79145 14.7426C8.01622 14.5783 8.15346 14.5189 8.26913 14.4956C8.42156 14.4649 8.57844 14.4649 8.73087 14.4956C8.84654 14.5189 8.98378 14.5783 9.20855 14.7426C9.44112 14.9127 9.71987 15.1585 10.1316 15.5226L10.1605 15.5482C11.0486 16.3337 11.7525 16.9563 12.3327 17.3673C12.9061 17.7734 13.4882 18.0711 14.1116 17.9998C14.61 17.9428 15.077 17.7282 15.4462 17.3879C15.9065 16.9638 16.0676 16.3295 16.1427 15.6265C16.2188 14.9151 16.2188 13.9701 16.2188 12.7767V8.74075C16.2188 7.08108 16.2188 5.77552 16.0831 4.75579C15.9441 3.71047 15.653 2.87673 15.0037 2.22041C14.3535 1.56321 13.5261 1.2677 12.489 1.12675C11.4789 0.989481 10.1863 0.989491 8.54552 0.989502H8.45448ZM2.84053 3.05557C3.23381 2.65803 3.76782 2.42617 4.67093 2.30344C5.59177 2.17829 6.80366 2.177 8.5 2.177C10.1963 2.177 11.4082 2.17829 12.3291 2.30344C13.2322 2.42617 13.7662 2.65803 14.1595 3.05557C14.5536 3.45399 14.7842 3.9964 14.906 4.91235C15.03 5.84473 15.0312 7.07127 15.0312 8.78545V12.7386C15.0312 13.9785 15.0304 14.8596 14.962 15.5003C14.8918 16.1569 14.7624 16.4033 14.6415 16.5147C14.4564 16.6853 14.2236 16.7917 13.9766 16.82C13.8186 16.8381 13.5536 16.7769 13.0191 16.3983C12.4977 16.0289 11.8417 15.4498 10.9183 14.6331L10.8976 14.6148C10.5119 14.2736 10.1919 13.9906 9.90948 13.7841C9.6142 13.5682 9.3164 13.4022 8.96536 13.3315C8.65816 13.2696 8.34184 13.2696 8.03464 13.3315C7.6836 13.4022 7.3858 13.5682 7.09052 13.7841C6.80807 13.9906 6.48815 14.2736 6.1024 14.6148L6.08167 14.6331C5.15827 15.4499 4.50229 16.0289 3.98089 16.3983C3.44636 16.7769 3.18144 16.8381 3.02339 16.82C2.7764 16.7917 2.54364 16.6853 2.35855 16.5147C2.23763 16.4033 2.1082 16.1569 2.03803 15.5003C1.96957 14.8596 1.96875 13.9785 1.96875 12.7386V8.78545C1.96875 7.07127 1.96999 5.84473 2.094 4.91235C2.21582 3.9964 2.44638 3.45399 2.84053 3.05557Z" fill="black"/>
</svg>
