<svg width="18" height="17" viewBox="0 0 18 17" fill="none" xmlns="http://www.w3.org/2000/svg">
<path fill-rule="evenodd" clip-rule="evenodd" d="M1.78035 0.814778C1.47099 0.706015 1.13204 0.868628 1.02327 1.17798C0.914511 1.48734 1.07712 1.82629 1.38648 1.93506L1.59327 2.00776C2.12179 2.19358 2.46914 2.31672 2.72473 2.44213C2.96478 2.55992 3.0706 2.65526 3.14031 2.75727C3.21177 2.86184 3.26695 3.00547 3.29809 3.29312C3.33067 3.59411 3.33148 3.98616 3.33148 4.57195V6.72658C3.33148 7.8765 3.34226 8.70566 3.45077 9.33916C3.56661 10.0155 3.79788 10.4997 4.23031 10.9558C4.70045 11.4517 5.29642 11.6676 6.00595 11.7682C6.68538 11.8645 7.54818 11.8645 8.61353 11.8645L12.8931 11.8645C13.4802 11.8645 13.9743 11.8645 14.374 11.8156C14.7982 11.7637 15.185 11.6502 15.5226 11.3751C15.8603 11.0999 16.0495 10.744 16.1859 10.3391C16.3145 9.95742 16.4142 9.47359 16.5328 8.89849L16.9357 6.94362L16.9364 6.93998L16.9447 6.89859C17.0751 6.24555 17.1847 5.69622 17.212 5.25438C17.2406 4.79031 17.1878 4.33272 16.8855 3.93974C16.6995 3.69795 16.438 3.56107 16.2001 3.47748C15.9574 3.39222 15.6831 3.3429 15.4062 3.31195C14.8623 3.25115 14.2015 3.25116 13.5535 3.25117L4.48716 3.25117C4.48455 3.22207 4.48174 3.19346 4.47869 3.16533C4.43616 2.77236 4.34399 2.41396 4.12076 2.08728C3.89578 1.75806 3.59665 1.54721 3.24782 1.37605C2.92158 1.21597 2.50704 1.07025 2.01895 0.898667L1.78035 0.814778ZM4.51897 4.43867H13.5287C14.2067 4.43867 14.8034 4.43946 15.2743 4.4921C15.5083 4.51825 15.6834 4.55459 15.8064 4.59783C15.907 4.63317 15.941 4.66203 15.9459 4.6662C15.9458 4.66611 15.9461 4.66637 15.9459 4.6662C15.9945 4.73065 16.0473 4.84758 16.0267 5.18123C16.0051 5.53239 15.9129 6.00126 15.7722 6.70579L15.7719 6.70754L15.377 8.62347C15.2492 9.24322 15.1633 9.65517 15.0606 9.95987C14.9631 10.2491 14.8716 10.3738 14.7724 10.4545C14.6733 10.5353 14.5328 10.5998 14.2298 10.6369C13.9106 10.676 13.4898 10.677 12.857 10.677H8.65892C7.5373 10.677 6.75904 10.6756 6.17267 10.5925C5.60678 10.5122 5.30783 10.3664 5.09207 10.1388C4.8386 9.87145 4.70189 9.60968 4.62122 9.13869C4.53322 8.62488 4.51898 7.90541 4.51898 6.72658L4.51897 4.43867Z" fill="black"/>
<path fill-rule="evenodd" clip-rule="evenodd" d="M5.93758 16.2187C4.95382 16.2187 4.15633 15.4212 4.15633 14.4374C4.15633 13.4537 4.95382 12.6562 5.93758 12.6562C6.92134 12.6562 7.71883 13.4537 7.71883 14.4374C7.71883 15.4212 6.92134 16.2187 5.93758 16.2187ZM5.34383 14.4374C5.34383 14.7653 5.60966 15.0312 5.93758 15.0312C6.2655 15.0312 6.53133 14.7653 6.53133 14.4374C6.53133 14.1095 6.2655 13.8437 5.93758 13.8437C5.60966 13.8437 5.34383 14.1095 5.34383 14.4374Z" fill="black"/>
<path fill-rule="evenodd" clip-rule="evenodd" d="M13.0626 16.2187C12.0788 16.2187 11.2813 15.4212 11.2813 14.4375C11.2813 13.4537 12.0788 12.6562 13.0626 12.6562C14.0463 12.6562 14.8438 13.4537 14.8438 14.4375C14.8438 15.4212 14.0463 16.2187 13.0626 16.2187ZM12.4688 14.4375C12.4688 14.7654 12.7347 15.0312 13.0626 15.0312C13.3905 15.0312 13.6563 14.7654 13.6563 14.4375C13.6563 14.1096 13.3905 13.8437 13.0626 13.8437C12.7347 13.8437 12.4688 14.1096 12.4688 14.4375Z" fill="black"/>
</svg>
