<svg width="19" height="19" viewBox="0 0 19 19" fill="none" xmlns="http://www.w3.org/2000/svg">
<path fill-rule="evenodd" clip-rule="evenodd" d="M8.66709 0.989503H10.3328C11.044 0.98948 11.6372 0.98946 12.108 1.05277C12.6051 1.11959 13.0538 1.26658 13.4143 1.62716C13.7749 1.98774 13.9219 2.43645 13.9887 2.93346C14.0067 3.0673 14.0196 3.21102 14.0288 3.36453C14.4954 3.3648 14.8899 3.36784 15.2149 3.40091C15.5898 3.43904 15.9376 3.52194 16.2511 3.73141C16.4888 3.89025 16.6929 4.09435 16.8518 4.33206C17.0612 4.64556 17.1441 4.9934 17.1823 5.36823C17.2187 5.72633 17.2187 6.16866 17.2187 6.69875V16.8228H17.4166C17.7445 16.8228 18.0103 17.0887 18.0103 17.4166C18.0103 17.7445 17.7445 18.0103 17.4166 18.0103H1.58325C1.25533 18.0103 0.989502 17.7445 0.989502 17.4166C0.989502 17.0887 1.25533 16.8228 1.58325 16.8228H1.78117L1.78117 6.69873C1.78116 6.16865 1.78114 5.72632 1.81757 5.36823C1.8557 4.9934 1.9386 4.64556 2.14807 4.33206C2.30691 4.09435 2.51101 3.89025 2.74873 3.73141C3.06223 3.52194 3.41006 3.43904 3.78489 3.40091C4.10997 3.36784 4.50446 3.3648 4.97101 3.36453C4.98023 3.21102 4.9931 3.0673 5.0111 2.93346C5.07792 2.43645 5.22491 1.98774 5.58549 1.62716C5.94607 1.26658 6.39479 1.11959 6.89179 1.05277C7.36266 0.98946 7.95579 0.98948 8.66709 0.989503ZM4.94786 4.55209C4.48663 4.5526 4.16081 4.5563 3.90507 4.58231C3.62414 4.61089 3.49433 4.66141 3.40847 4.71878C3.30042 4.79098 3.20764 4.88375 3.13544 4.9918C3.07808 5.07766 3.02755 5.20747 2.99898 5.48841C2.96939 5.77927 2.96867 6.1608 2.96867 6.72909V16.8228H4.94784V11.677H4.35409C4.02617 11.677 3.76034 11.4112 3.76034 11.0833C3.76034 10.7553 4.02617 10.4895 4.35409 10.4895H4.94784V9.302H4.35409C4.02617 9.302 3.76034 9.03617 3.76034 8.70825C3.76034 8.38033 4.02617 8.1145 4.35409 8.1145H4.94784V6.927H4.35409C4.02617 6.927 3.76034 6.66117 3.76034 6.33325C3.76034 6.00533 4.02617 5.7395 4.35409 5.7395H4.94784L4.94783 4.70876C4.94783 4.65588 4.94783 4.60366 4.94786 4.55209ZM6.13534 16.8228H8.90617V15.0416C8.90617 14.7137 9.172 14.4478 9.49992 14.4478C9.82784 14.4478 10.0937 14.7137 10.0937 15.0416V16.8228H12.8645V4.74992C12.8645 3.98674 12.8632 3.47409 12.8118 3.09169C12.7627 2.72637 12.6778 2.57001 12.5747 2.46685C12.4715 2.36368 12.3151 2.27879 11.9498 2.22968C11.5674 2.17826 11.0548 2.177 10.2916 2.177H8.70825C7.94508 2.177 7.43243 2.17826 7.05002 2.22968C6.6847 2.27879 6.52834 2.36368 6.42518 2.46685C6.32201 2.57001 6.23713 2.72637 6.18801 3.09169C6.1366 3.47409 6.13534 3.98674 6.13534 4.74992V16.8228ZM14.052 6.927H14.6458C14.9737 6.927 15.2395 6.66117 15.2395 6.33325C15.2395 6.00533 14.9737 5.7395 14.6458 5.7395H14.052L14.052 4.70876C14.052 4.65588 14.052 4.60366 14.052 4.55209C14.5132 4.5526 14.839 4.5563 15.0948 4.58231C15.3757 4.61089 15.5055 4.66141 15.5914 4.71878C15.6994 4.79098 15.7922 4.88375 15.8644 4.9918C15.9218 5.07766 15.9723 5.20747 16.0009 5.48841C16.0305 5.77927 16.0312 6.1608 16.0312 6.72909V16.8228H14.052V11.677H14.6458C14.9737 11.677 15.2395 11.4112 15.2395 11.0833C15.2395 10.7553 14.9737 10.4895 14.6458 10.4895H14.052V9.302H14.6458C14.9737 9.302 15.2395 9.03617 15.2395 8.70825C15.2395 8.38033 14.9737 8.1145 14.6458 8.1145H14.052V6.927ZM9.49992 3.3645C9.82784 3.3645 10.0937 3.63033 10.0937 3.95825V4.94784H11.0833C11.4112 4.94784 11.677 5.21367 11.677 5.54159C11.677 5.86951 11.4112 6.13534 11.0833 6.13534H10.0937V7.12492C10.0937 7.45284 9.82784 7.71867 9.49992 7.71867C9.172 7.71867 8.90617 7.45284 8.90617 7.12492V6.13534H7.91659C7.58867 6.13534 7.32284 5.86951 7.32284 5.54159C7.32284 5.21367 7.58867 4.94784 7.91659 4.94784H8.90617V3.95825C8.90617 3.63033 9.172 3.3645 9.49992 3.3645ZM7.32284 9.49992C7.32284 9.172 7.58867 8.90617 7.91659 8.90617H11.0833C11.4112 8.90617 11.677 9.172 11.677 9.49992C11.677 9.82784 11.4112 10.0937 11.0833 10.0937H7.91659C7.58867 10.0937 7.32284 9.82784 7.32284 9.49992ZM7.32284 11.8749C7.32284 11.547 7.58867 11.2812 7.91659 11.2812H11.0833C11.4112 11.2812 11.677 11.547 11.677 11.8749C11.677 12.2028 11.4112 12.4687 11.0833 12.4687H7.91659C7.58867 12.4687 7.32284 12.2028 7.32284 11.8749Z" fill="black"/>
</svg>
