<svg width="17" height="19" viewBox="0 0 17 19" fill="none" xmlns="http://www.w3.org/2000/svg">
<path fill-rule="evenodd" clip-rule="evenodd" d="M6.32292 7.12492C6.32292 5.92255 7.29763 4.94783 8.5 4.94783C9.70237 4.94783 10.6771 5.92255 10.6771 7.12492C10.6771 8.32729 9.70237 9.302 8.5 9.302C7.29763 9.302 6.32292 8.32729 6.32292 7.12492ZM8.5 6.13533C7.95347 6.13533 7.51042 6.57839 7.51042 7.12492C7.51042 7.67145 7.95347 8.1145 8.5 8.1145C9.04653 8.1145 9.48958 7.67145 9.48958 7.12492C9.48958 6.57839 9.04653 6.13533 8.5 6.13533Z" fill="black"/>
<path fill-rule="evenodd" clip-rule="evenodd" d="M8.5 9.69783C7.55336 9.69783 6.66698 9.88842 5.9953 10.2243C5.35912 10.5424 4.73958 11.0916 4.73958 11.8749L4.73948 11.9244C4.73827 12.3284 4.73622 13.0087 5.38101 13.4755C5.68023 13.6921 6.07504 13.8302 6.56413 13.9182C7.05774 14.007 7.69029 14.052 8.5 14.052C9.30971 14.052 9.94226 14.007 10.4359 13.9182C10.925 13.8302 11.3198 13.6921 11.619 13.4755C12.2638 13.0087 12.2617 12.3284 12.2605 11.9244L12.2604 11.8749C12.2604 11.0916 11.6409 10.5424 11.0047 10.2243C10.333 9.88842 9.44664 9.69783 8.5 9.69783ZM5.92708 11.8749C5.92708 11.7837 6.01643 11.5414 6.52636 11.2864C7.00078 11.0492 7.69774 10.8853 8.5 10.8853C9.30226 10.8853 9.99922 11.0492 10.4736 11.2864C10.9836 11.5414 11.0729 11.7837 11.0729 11.8749C11.0729 12.3535 11.0424 12.4268 10.9227 12.5135C10.8261 12.5835 10.6271 12.6772 10.2256 12.7495C9.82858 12.8209 9.27363 12.8645 8.5 12.8645C7.72637 12.8645 7.17142 12.8209 6.77441 12.7495C6.37287 12.6772 6.17394 12.5835 6.07732 12.5135C5.95755 12.4268 5.92708 12.3535 5.92708 11.8749Z" fill="black"/>
<path fill-rule="evenodd" clip-rule="evenodd" d="M5.90602 1.62372C7.04913 1.23221 7.75779 0.989502 8.5 0.989502C9.24221 0.989502 9.95087 1.23221 11.094 1.62372L11.6699 1.82086C12.8426 2.22228 13.7476 2.53208 14.3955 2.79528C14.7219 2.92787 15.0025 3.05628 15.2284 3.18749C15.4458 3.31376 15.6639 3.47125 15.8121 3.68239C15.9586 3.89109 16.0343 4.14765 16.0819 4.39463C16.1314 4.6514 16.1613 4.95942 16.1805 5.31308C16.2188 6.01532 16.2188 6.97736 16.2188 8.22519V9.49308C16.2188 14.3231 12.5707 16.6388 10.4013 17.5864L10.3799 17.5958C10.1109 17.7134 9.858 17.8239 9.56748 17.8982C9.26074 17.9767 8.93483 18.0103 8.5 18.0103C8.06517 18.0103 7.73926 17.9767 7.43252 17.8982C7.14199 17.8238 6.88914 17.7134 6.62013 17.5958L6.59868 17.5864C4.42927 16.6388 0.78125 14.3231 0.78125 9.49308V8.22526C0.78125 6.97749 0.78125 6.01529 0.819487 5.31308C0.838744 4.95942 0.86858 4.6514 0.918061 4.39463C0.965656 4.14765 1.0414 3.89109 1.18788 3.68239C1.33607 3.47125 1.55419 3.31376 1.77161 3.18749C1.99754 3.05628 2.27812 2.92787 2.60448 2.79528C3.25236 2.53208 4.15741 2.22228 5.33013 1.82086L5.90602 1.62372ZM8.5 2.177C7.97929 2.177 7.46699 2.34455 6.18882 2.78207L5.73534 2.9373C4.53787 3.34719 3.66458 3.64637 3.05143 3.89546C2.74538 4.01979 2.52363 4.12398 2.36798 4.21438C2.29113 4.25901 2.23818 4.29583 2.20282 4.32458C2.17284 4.34895 2.16141 4.36275 2.15977 4.36476C2.15824 4.36725 2.1484 4.3837 2.13455 4.42259C2.11873 4.46701 2.10119 4.5307 2.08411 4.61934C2.04953 4.79876 2.02333 5.04522 2.00523 5.37764C1.96897 6.04359 1.96875 6.97318 1.96875 8.24644V9.49308C1.96875 13.59 5.03242 15.6064 7.07404 16.4982C7.36813 16.6267 7.53796 16.6994 7.72702 16.7478C7.90758 16.794 8.12792 16.8228 8.5 16.8228C8.87208 16.8228 9.09242 16.794 9.27298 16.7478C9.46204 16.6994 9.63187 16.6267 9.92596 16.4982C11.9676 15.6064 15.0313 13.59 15.0313 9.49308V8.24644C15.0313 6.97318 15.031 6.04359 14.9948 5.37764C14.9767 5.04522 14.9505 4.79876 14.9159 4.61934C14.8988 4.5307 14.8813 4.46701 14.8655 4.42259C14.8516 4.38367 14.8417 4.36722 14.8402 4.36476C14.8386 4.36273 14.8271 4.34893 14.7972 4.32458C14.7618 4.29583 14.7089 4.25901 14.632 4.21438C14.4764 4.12398 14.2546 4.01979 13.9486 3.89546C13.3354 3.64637 12.4621 3.34719 11.2647 2.9373L10.8112 2.78207C9.53301 2.34455 9.02071 2.177 8.5 2.177Z" fill="black"/>
</svg>
