<svg width="13" height="18" viewBox="0 0 13 18" fill="none" xmlns="http://www.w3.org/2000/svg">
<path fill-rule="evenodd" clip-rule="evenodd" d="M6.49992 0.989502C4.4231 0.989502 2.7395 2.6731 2.7395 4.74992C2.7395 6.82674 4.4231 8.51033 6.49992 8.51033C8.57674 8.51033 10.2603 6.82674 10.2603 4.74992C10.2603 2.6731 8.57674 0.989502 6.49992 0.989502ZM3.927 4.74992C3.927 3.32894 5.07894 2.177 6.49992 2.177C7.9209 2.177 9.07283 3.32894 9.07283 4.74992C9.07283 6.1709 7.9209 7.32283 6.49992 7.32283C5.07894 7.32283 3.927 6.1709 3.927 4.74992Z" fill="black"/>
<path fill-rule="evenodd" clip-rule="evenodd" d="M6.49992 9.69783C4.88545 9.69783 3.39462 10.0705 2.28679 10.7036C1.19575 11.327 0.364502 12.2788 0.364502 13.4583C0.364502 14.6377 1.19575 15.5895 2.28679 16.2129C3.39462 16.846 4.88545 17.2187 6.49992 17.2187C8.11439 17.2187 9.60522 16.846 10.7131 16.2129C11.8041 15.5895 12.6353 14.6377 12.6353 13.4583C12.6353 12.2788 11.8041 11.327 10.7131 10.7036C9.60522 10.0705 8.11439 9.69783 6.49992 9.69783ZM1.552 13.4583C1.552 12.8888 1.9613 12.2573 2.87595 11.7346C3.77381 11.2215 5.05381 10.8853 6.49992 10.8853C7.94602 10.8853 9.22603 11.2215 10.1239 11.7346C11.0385 12.2573 11.4478 12.8888 11.4478 13.4583C11.4478 14.0277 11.0385 14.6592 10.1239 15.1819C9.22603 15.695 7.94602 16.0312 6.49992 16.0312C5.05381 16.0312 3.77381 15.695 2.87595 15.1819C1.9613 14.6592 1.552 14.0277 1.552 13.4583Z" fill="black"/>
</svg>
