<svg width="17" height="18" viewBox="0 0 17 18" fill="none" xmlns="http://www.w3.org/2000/svg">
<path fill-rule="evenodd" clip-rule="evenodd" d="M7.57871 0.247193H9.25137C10.7063 0.24718 11.8586 0.24717 12.7605 0.368424C13.6887 0.493213 14.4399 0.756139 15.0324 1.34859C15.2643 1.58047 15.2643 1.95641 15.0324 2.18828C14.8005 2.42016 14.4246 2.42016 14.1927 2.18828C13.8577 1.85324 13.3988 1.65242 12.6023 1.54534C11.7887 1.43595 10.7163 1.43469 9.20671 1.43469H7.62337C6.11381 1.43469 5.04136 1.43595 4.2278 1.54534C3.43131 1.65242 2.97242 1.85324 2.63738 2.18828C2.30234 2.52332 2.10152 2.98221 1.99443 3.7787C1.88505 4.59226 1.88379 5.66471 1.88379 7.17427V10.3409C1.88379 11.8505 1.88505 12.923 1.99443 13.7365C2.10152 14.533 2.30234 14.9919 2.63738 15.3269C2.97242 15.662 3.43131 15.8628 4.2278 15.9699C5.04136 16.0793 6.11381 16.0805 7.62337 16.0805H9.20671C10.7163 16.0805 11.7887 16.0793 12.6023 15.9699C13.3988 15.8628 13.8577 15.662 14.1927 15.3269C14.7437 14.776 14.9105 13.9199 14.9395 11.9157C14.9442 11.5878 15.2139 11.3258 15.5418 11.3306C15.8696 11.3353 16.1316 11.605 16.1269 11.9329C16.099 13.8546 15.9747 15.2244 15.0324 16.1666C14.4399 16.7591 13.6887 17.022 12.7605 17.1468C11.8586 17.268 10.7063 17.268 9.25137 17.268H7.57872C6.12382 17.268 4.97144 17.268 4.06956 17.1468C3.1414 17.022 2.39014 16.7591 1.79769 16.1666C1.20524 15.5742 0.94231 14.8229 0.817521 13.8947C0.696267 12.9929 0.696277 11.8405 0.696289 10.3856V7.12961C0.696277 5.67472 0.696267 4.52234 0.817521 3.62047C0.94231 2.6923 1.20524 1.94105 1.79769 1.34859C2.39014 0.756139 3.1414 0.493213 4.06956 0.368424C4.97144 0.24717 6.12382 0.24718 7.57871 0.247193ZM13.2546 4.83534C14.0944 3.99559 15.4559 3.99559 16.2956 4.83534C17.1354 5.6751 17.1354 7.03661 16.2956 7.87637L12.531 11.641C12.3262 11.8459 12.1876 11.9845 12.0324 12.1055C11.8499 12.2479 11.6523 12.37 11.4433 12.4696C11.2656 12.5543 11.0797 12.6163 10.8049 12.7078L9.15532 13.2577C8.79113 13.3791 8.38961 13.2843 8.11816 13.0128C7.8467 12.7414 7.75192 12.3399 7.87331 11.9757L8.41209 10.3593C8.41582 10.3481 8.41951 10.3371 8.42315 10.3261C8.51472 10.0513 8.57667 9.86538 8.66135 9.68769C8.76097 9.47867 8.88306 9.28112 9.02547 9.09854C9.14651 8.94335 9.28511 8.80479 9.48995 8.6C9.49811 8.59185 9.50637 8.58359 9.51473 8.57522L13.2546 4.83534ZM15.456 5.67503C15.0799 5.29902 14.4703 5.29902 14.0943 5.67503L13.9504 5.81894C13.9582 5.84545 13.9672 5.87364 13.9774 5.90327C14.0519 6.11792 14.1932 6.40182 14.4612 6.66979C14.7292 6.93776 15.0131 7.07908 15.2277 7.15355C15.2573 7.16383 15.2855 7.17279 15.312 7.18059L15.456 7.03668C15.832 6.66067 15.832 6.05104 15.456 5.67503ZM14.4051 8.0875C14.1535 7.95531 13.8817 7.76972 13.6215 7.50948C13.3613 7.24924 13.1757 6.97751 13.0435 6.72585L10.3544 9.41491C10.1161 9.65327 10.0324 9.73835 9.96183 9.82888C9.87246 9.94345 9.79585 10.0674 9.73334 10.1986C9.68394 10.3022 9.64524 10.4151 9.53865 10.7349L9.22175 11.6856L9.44542 11.9092L10.3961 11.5923C10.7159 11.4857 10.8288 11.447 10.9324 11.3976C11.0636 11.3351 11.1875 11.2585 11.3021 11.1692C11.3926 11.0985 11.4777 11.0149 11.7161 10.7766L14.4051 8.0875ZM4.65462 6.38261C4.65462 6.05469 4.92045 5.78886 5.24837 5.78886H10.3942C10.7221 5.78886 10.988 6.05469 10.988 6.38261C10.988 6.71053 10.7221 6.97636 10.3942 6.97636H5.24837C4.92045 6.97636 4.65462 6.71053 4.65462 6.38261ZM4.65462 9.54927C4.65462 9.22136 4.92045 8.95552 5.24837 8.95552H7.22754C7.55546 8.95552 7.82129 9.22136 7.82129 9.54927C7.82129 9.87719 7.55546 10.143 7.22754 10.143H5.24837C4.92045 10.143 4.65462 9.87719 4.65462 9.54927ZM4.65462 12.7159C4.65462 12.388 4.92045 12.1222 5.24837 12.1222H6.43587C6.76379 12.1222 7.02962 12.388 7.02962 12.7159C7.02962 13.0439 6.76379 13.3097 6.43587 13.3097H5.24837C4.92045 13.3097 4.65462 13.0439 4.65462 12.7159Z" fill="black"/>
</svg>
