<svg width="19" height="19" viewBox="0 0 19 19" fill="none" xmlns="http://www.w3.org/2000/svg">
<path fill-rule="evenodd" clip-rule="evenodd" d="M8.66367 0.989502H10.3363C11.7912 0.98949 12.9436 0.98948 13.8455 1.11073C14.7736 1.23552 15.5249 1.49845 16.1174 2.0909C16.3492 2.32278 16.3492 2.69872 16.1174 2.93059C15.8855 3.16247 15.5095 3.16247 15.2777 2.93059C14.9426 2.59555 14.4837 2.39473 13.6872 2.28764C12.8737 2.17826 11.8012 2.177 10.2917 2.177H8.70834C7.19877 2.177 6.12632 2.17826 5.31276 2.28764C4.51627 2.39473 4.05738 2.59555 3.72234 2.93059C3.3873 3.26563 3.18648 3.72452 3.07939 4.52101C2.97001 5.33457 2.96875 6.40702 2.96875 7.91658V11.0833C2.96875 12.5928 2.97001 13.6653 3.07939 14.4788C3.18648 15.2753 3.3873 15.7342 3.72234 16.0692C4.05738 16.4043 4.51627 16.6051 5.31276 16.7122C6.12632 16.8216 7.19877 16.8228 8.70833 16.8228H10.2917C11.8012 16.8228 12.8737 16.8216 13.6872 16.7122C14.4837 16.6051 14.9426 16.4043 15.2777 16.0692C15.8286 15.5183 15.9954 14.6622 16.0244 12.658C16.0292 12.3301 16.2988 12.0682 16.6267 12.0729C16.9546 12.0776 17.2166 12.3473 17.2118 12.6752C17.184 14.5969 17.0596 15.9667 16.1174 16.9089C15.5249 17.5014 14.7736 17.7643 13.8455 17.8891C12.9436 18.0104 11.7912 18.0103 10.3363 18.0103H8.66368C7.20878 18.0103 6.0564 18.0104 5.15452 17.8891C4.22636 17.7643 3.47511 17.5014 2.88265 16.9089C2.2902 16.3165 2.02727 15.5652 1.90248 14.6371C1.78123 13.7352 1.78124 12.5828 1.78125 11.1279V7.87192C1.78124 6.41703 1.78123 5.26465 1.90248 4.36277C2.02727 3.43461 2.2902 2.68336 2.88265 2.0909C3.47511 1.49845 4.22636 1.23552 5.15452 1.11073C6.0564 0.98948 7.20878 0.98949 8.66367 0.989502ZM14.3396 5.57765C15.1793 4.7379 16.5408 4.7379 17.3806 5.57765C18.2204 6.41741 18.2204 7.77892 17.3806 8.61868L13.616 12.3833C13.4112 12.5882 13.2726 12.7268 13.1174 12.8478C12.9348 12.9902 12.7373 13.1123 12.5282 13.2119C12.3506 13.2966 12.1646 13.3586 11.8898 13.4501L10.2403 14C9.87609 14.1214 9.47457 14.0266 9.20312 13.7551C8.93166 13.4837 8.83688 13.0822 8.95827 12.718L9.49705 11.1016C9.50078 11.0904 9.50447 11.0794 9.50811 11.0685C9.59968 10.7936 9.66163 10.6077 9.74631 10.43C9.84593 10.221 9.96802 10.0234 10.1104 9.84085C10.2315 9.68566 10.3701 9.5471 10.5749 9.34231C10.5831 9.33416 10.5913 9.3259 10.5997 9.31753L14.3396 5.57765ZM16.5409 6.41734C16.1649 6.04133 15.5553 6.04133 15.1793 6.41734L15.0354 6.56125C15.0432 6.58776 15.0521 6.61595 15.0624 6.64558C15.1369 6.86023 15.2782 7.14413 15.5462 7.4121C15.8141 7.68007 16.098 7.82139 16.3127 7.89586C16.3423 7.90613 16.3705 7.9151 16.397 7.9229L16.5409 7.77899C16.9169 7.40298 16.9169 6.79335 16.5409 6.41734ZM15.4901 8.82981C15.2384 8.69762 14.9667 8.51203 14.7065 8.25179C14.4462 7.99155 14.2606 7.71982 14.1284 7.46816L11.4394 10.1572C11.201 10.3956 11.1174 10.4807 11.0468 10.5712C10.9574 10.6858 10.8808 10.8097 10.8183 10.9409C10.7689 11.0445 10.7302 11.1574 10.6236 11.4772L10.3067 12.4279L10.5304 12.6515L11.4811 12.3346C11.8009 12.228 11.9137 12.1894 12.0174 12.14C12.1485 12.0774 12.2725 12.0008 12.3871 11.9115C12.4776 11.8409 12.5627 11.7572 12.801 11.5189L15.4901 8.82981ZM5.73958 7.12492C5.73958 6.797 6.00542 6.53117 6.33333 6.53117H11.4792C11.8071 6.53117 12.0729 6.797 12.0729 7.12492C12.0729 7.45284 11.8071 7.71867 11.4792 7.71867H6.33333C6.00542 7.71867 5.73958 7.45284 5.73958 7.12492ZM5.73958 10.2916C5.73958 9.96367 6.00542 9.69783 6.33333 9.69783H8.3125C8.64042 9.69783 8.90625 9.96367 8.90625 10.2916C8.90625 10.6195 8.64042 10.8853 8.3125 10.8853H6.33333C6.00542 10.8853 5.73958 10.6195 5.73958 10.2916ZM5.73958 13.4583C5.73958 13.1303 6.00542 12.8645 6.33333 12.8645H7.52083C7.84875 12.8645 8.11459 13.1303 8.11459 13.4583C8.11459 13.7862 7.84875 14.052 7.52083 14.052H6.33333C6.00542 14.052 5.73958 13.7862 5.73958 13.4583Z" fill="white"/>
</svg>
