<svg width="19" height="19" viewBox="0 0 19 19" fill="none" xmlns="http://www.w3.org/2000/svg">
<g clip-path="url(#clip0_285_1087)">
<path fill-rule="evenodd" clip-rule="evenodd" d="M3.3645 6.74067C3.3645 3.52493 6.15233 0.989502 9.49992 0.989502C12.8475 0.989502 15.6353 3.52493 15.6353 6.74067C15.6353 9.75783 13.7647 13.3 10.7466 14.5897C9.9543 14.9283 9.04554 14.9283 8.25321 14.5897C5.23512 13.3 3.3645 9.75783 3.3645 6.74067ZM9.49992 2.177C6.72636 2.177 4.552 4.25969 4.552 6.74067C4.552 9.3756 6.2188 12.4289 8.71986 13.4978C9.21413 13.709 9.78571 13.709 10.28 13.4978C12.781 12.4289 14.4478 9.3756 14.4478 6.74067C14.4478 4.25969 12.2735 2.177 9.49992 2.177ZM9.49992 6.13533C8.95339 6.13533 8.51033 6.57839 8.51033 7.12492C8.51033 7.67145 8.95339 8.1145 9.49992 8.1145C10.0465 8.1145 10.4895 7.67145 10.4895 7.12492C10.4895 6.57839 10.0465 6.13533 9.49992 6.13533ZM7.32283 7.12492C7.32283 5.92255 8.29755 4.94783 9.49992 4.94783C10.7023 4.94783 11.677 5.92255 11.677 7.12492C11.677 8.32729 10.7023 9.302 9.49992 9.302C8.29755 9.302 7.32283 8.32729 7.32283 7.12492ZM2.84629 11.8722C3.06639 12.1153 3.04777 12.4908 2.8047 12.7109C2.35528 13.1178 2.177 13.5074 2.177 13.8541C2.177 14.4587 2.75018 15.2037 4.14564 15.8317C5.48538 16.4346 7.37787 16.8228 9.49992 16.8228C11.622 16.8228 13.5145 16.4346 14.8542 15.8317C16.2497 15.2037 16.8228 14.4587 16.8228 13.8541C16.8228 13.5074 16.6446 13.1178 16.1951 12.7109C15.9521 12.4908 15.9334 12.1153 16.1536 11.8722C16.3737 11.6291 16.7491 11.6105 16.9922 11.8306C17.5963 12.3776 18.0103 13.0633 18.0103 13.8541C18.0103 15.217 16.8113 16.2532 15.3415 16.9146C13.816 17.6011 11.7501 18.0103 9.49992 18.0103C7.24971 18.0103 5.18387 17.6011 3.65834 16.9146C2.18853 16.2532 0.989502 15.217 0.989502 13.8541C0.989502 13.0633 1.40358 12.3776 2.00763 11.8306C2.2507 11.6105 2.62618 11.6291 2.84629 11.8722Z" fill="white"/>
</g>
<defs>
<clipPath id="clip0_285_1087">
<rect width="19" height="19" fill="white"/>
</clipPath>
</defs>
</svg>
