<svg width="18" height="18" viewBox="0 0 18 18" fill="none" xmlns="http://www.w3.org/2000/svg">
<path fill-rule="evenodd" clip-rule="evenodd" d="M3.27954 5.99836C3.27954 2.78262 6.06736 0.247192 9.41496 0.247192C12.7626 0.247192 15.5504 2.78262 15.5504 5.99836C15.5504 9.01552 13.6798 12.5576 10.6617 13.8474C9.86934 14.186 8.96058 14.186 8.16825 13.8474C5.15016 12.5576 3.27954 9.01552 3.27954 5.99836ZM9.41496 1.43469C6.64139 1.43469 4.46704 3.51738 4.46704 5.99836C4.46704 8.63329 6.13384 11.6866 8.6349 12.7554C9.12917 12.9667 9.70075 12.9667 10.195 12.7554C12.6961 11.6866 14.3629 8.63329 14.3629 5.99836C14.3629 3.51738 12.1885 1.43469 9.41496 1.43469ZM9.41496 5.39303C8.86843 5.39303 8.42537 5.83608 8.42537 6.38261C8.42537 6.92914 8.86843 7.37219 9.41496 7.37219C9.96149 7.37219 10.4045 6.92914 10.4045 6.38261C10.4045 5.83608 9.96149 5.39303 9.41496 5.39303ZM7.23787 6.38261C7.23787 5.18024 8.21259 4.20553 9.41496 4.20553C10.6173 4.20553 11.592 5.18024 11.592 6.38261C11.592 7.58498 10.6173 8.55969 9.41496 8.55969C8.21259 8.55969 7.23787 7.58498 7.23787 6.38261ZM2.76132 11.1299C2.98143 11.373 2.96281 11.7485 2.71974 11.9686C2.27031 12.3755 2.09204 12.7651 2.09204 13.1118C2.09204 13.7164 2.66522 14.4614 4.06068 15.0894C5.40042 15.6923 7.29291 16.0805 9.41496 16.0805C11.537 16.0805 13.4295 15.6923 14.7692 15.0894C16.1647 14.4614 16.7379 13.7164 16.7379 13.1118C16.7379 12.7651 16.5596 12.3755 16.1102 11.9686C15.8671 11.7485 15.8485 11.373 16.0686 11.1299C16.2887 10.8868 16.6642 10.8682 16.9072 11.0883C17.5113 11.6353 17.9254 12.321 17.9254 13.1118C17.9254 14.4747 16.7263 15.5109 15.2565 16.1723C13.731 16.8588 11.6652 17.268 9.41496 17.268C7.16475 17.268 5.09891 16.8588 3.57337 16.1723C2.10357 15.5109 0.904541 14.4747 0.904541 13.1118C0.904541 12.321 1.31862 11.6353 1.92267 11.0883C2.16574 10.8682 2.54122 10.8868 2.76132 11.1299Z" fill="black"/>
</svg>
