<svg width="17" height="18" viewBox="0 0 17 18" fill="none" xmlns="http://www.w3.org/2000/svg">
<path d="M3.2452 9.17733C3.01332 8.94546 3.01332 8.56952 3.2452 8.33764L4.82853 6.75431C5.0604 6.52244 5.43635 6.52244 5.66822 6.75431C5.90009 6.98618 5.90009 7.36213 5.66822 7.594L5.09848 8.16374L10.79 8.16374C11.118 8.16374 11.3838 8.42957 11.3838 8.75749C11.3838 9.08541 11.118 9.35124 10.79 9.35124L5.09848 9.35124L5.66822 9.92098C5.90009 10.1529 5.90009 10.5288 5.66822 10.7607C5.43635 10.9925 5.0604 10.9925 4.82853 10.7607L3.2452 9.17733Z" fill="black"/>
<path fill-rule="evenodd" clip-rule="evenodd" d="M9.9551 0.247071H10.8337C11.9163 0.247055 12.789 0.247042 13.4753 0.339319C14.1879 0.435123 14.7879 0.640081 15.2644 1.1166C15.741 1.59312 15.9459 2.1931 16.0417 2.90568C16.134 3.59204 16.134 4.46471 16.134 5.54738V11.9676C16.134 13.0503 16.134 13.9229 16.0417 14.6093C15.9459 15.3219 15.741 15.9219 15.2644 16.3984C14.7879 16.8749 14.1879 17.0799 13.4753 17.1757C12.789 17.2679 11.9163 17.2679 10.8336 17.2679H9.95511C8.87243 17.2679 7.99976 17.2679 7.31341 17.1757C6.60082 17.0799 6.00084 16.8749 5.52432 16.3984C5.2085 16.0826 5.01141 15.7118 4.88662 15.2886C4.13345 15.2876 3.50596 15.2793 2.99757 15.211C2.39278 15.1297 1.86843 14.9537 1.44988 14.5351C1.03133 14.1166 0.855359 13.5922 0.774046 12.9875C0.696256 12.4089 0.696271 11.676 0.69629 10.7792V6.73581C0.696271 5.839 0.696256 5.10612 0.774046 4.52752C0.855359 3.92273 1.03133 3.39838 1.44988 2.97983C1.86843 2.56128 2.39278 2.38531 2.99757 2.30399C3.50596 2.23564 4.13345 2.22736 4.88662 2.22637C5.01141 1.80318 5.2085 1.43242 5.52432 1.1166C6.00084 0.640081 6.60082 0.435123 7.31341 0.339319C7.99976 0.247042 8.87243 0.247055 9.9551 0.247071ZM4.65618 12.7191C4.65902 13.2294 4.66744 13.689 4.69646 14.1005C4.03582 14.098 3.54471 14.0864 3.15581 14.0341C2.68269 13.9705 2.45071 13.8566 2.28957 13.6955C2.12843 13.5343 2.01457 13.3023 1.95096 12.8292C1.88505 12.339 1.88379 11.6864 1.88379 10.7367V6.77832C1.88379 5.82855 1.88505 5.17595 1.95096 4.68575C2.01457 4.21264 2.12843 3.98065 2.28957 3.81952C2.45071 3.65838 2.68269 3.54451 3.15581 3.4809C3.54471 3.42862 4.03582 3.41702 4.69646 3.41446C4.66744 3.82598 4.65902 4.28559 4.65618 4.79585C4.65435 5.12376 4.9187 5.39107 5.24662 5.3929C5.57453 5.39472 5.84184 5.13037 5.84366 4.80246C5.84848 3.93677 5.87096 3.32317 5.9565 2.85747C6.03893 2.40875 6.17128 2.14902 6.36401 1.95629C6.58312 1.73718 6.89074 1.59433 7.47164 1.51623C8.06963 1.43583 8.86217 1.43457 9.99855 1.43457H10.7902C11.9266 1.43457 12.7191 1.43583 13.3171 1.51623C13.898 1.59433 14.2056 1.73718 14.4247 1.95629C14.6438 2.17539 14.7867 2.48301 14.8648 3.06392C14.9452 3.6619 14.9465 4.45445 14.9465 5.59082V11.9242C14.9465 13.0605 14.9452 13.8531 14.8648 14.4511C14.7867 15.032 14.6438 15.3396 14.4247 15.5587C14.2056 15.7778 13.898 15.9206 13.3171 15.9987C12.7191 16.0791 11.9266 16.0804 10.7902 16.0804H9.99854C8.86217 16.0804 8.06963 16.0791 7.47164 15.9987C6.89074 15.9206 6.58312 15.7778 6.36401 15.5587C6.17128 15.366 6.03893 15.1062 5.9565 14.6575C5.87096 14.1918 5.84848 13.5782 5.84366 12.7125C5.84184 12.3846 5.57453 12.1203 5.24662 12.1221C4.9187 12.1239 4.65435 12.3912 4.65618 12.7191Z" fill="black"/>
</svg>
