<svg width="19" height="19" viewBox="0 0 19 19" fill="none" xmlns="http://www.w3.org/2000/svg">
<path d="M4.33016 9.91976C4.09828 9.68789 4.09828 9.31195 4.33016 9.08007L5.91349 7.49674C6.14536 7.26487 6.52131 7.26487 6.75318 7.49674C6.98505 7.72862 6.98505 8.10456 6.75318 8.33643L6.18344 8.90617L11.875 8.90617C12.2029 8.90617 12.4688 9.172 12.4688 9.49992C12.4688 9.82784 12.2029 10.0937 11.875 10.0937L6.18344 10.0937L6.75318 10.6634C6.98505 10.8953 6.98505 11.2712 6.75318 11.5031C6.52131 11.735 6.14536 11.735 5.91349 11.5031L4.33016 9.91976Z" fill="white"/>
<path fill-rule="evenodd" clip-rule="evenodd" d="M11.0401 0.989502H11.9186C13.0013 0.989486 13.874 0.989473 14.5603 1.08175C15.2729 1.17756 15.8729 1.38251 16.3494 1.85903C16.8259 2.33555 17.0309 2.93553 17.1267 3.64812C17.219 4.33447 17.2189 5.20714 17.2189 6.28981V12.71C17.2189 13.7927 17.219 14.6654 17.1267 15.3517C17.0309 16.0643 16.8259 16.6643 16.3494 17.1408C15.8729 17.6173 15.2729 17.8223 14.5603 17.9181C13.874 18.0104 13.0013 18.0104 11.9186 18.0103H11.0401C9.95739 18.0104 9.08472 18.0104 8.39837 17.9181C7.68578 17.8223 7.0858 17.6173 6.60928 17.1408C6.29346 16.825 6.09637 16.4542 5.97158 16.031C5.21841 16.03 4.59093 16.0218 4.08254 15.9534C3.47774 15.8721 2.95339 15.6961 2.53484 15.2776C2.11629 14.859 1.94032 14.3347 1.85901 13.7299C1.78122 13.1513 1.78123 12.4184 1.78125 11.5216V7.47825C1.78123 6.58143 1.78122 5.84855 1.85901 5.26995C1.94032 4.66516 2.11629 4.14081 2.53484 3.72226C2.95339 3.30371 3.47774 3.12774 4.08254 3.04642C4.59093 2.97807 5.21841 2.96979 5.97158 2.9688C6.09637 2.54561 6.29346 2.17485 6.60928 1.85903C7.0858 1.38251 7.68578 1.17756 8.39837 1.08175C9.08472 0.989473 9.95739 0.989486 11.0401 0.989502ZM5.74114 13.4616C5.74398 13.9718 5.75241 14.4314 5.78142 14.8429C5.12078 14.8404 4.62967 14.8288 4.24077 14.7765C3.76765 14.7129 3.53567 14.599 3.37453 14.4379C3.2134 14.2768 3.09953 14.0448 3.03592 13.5717C2.97001 13.0815 2.96875 12.4289 2.96875 11.4791V7.52075C2.96875 6.57098 2.97001 5.91838 3.03592 5.42818C3.09953 4.95507 3.2134 4.72308 3.37453 4.56195C3.53567 4.40081 3.76765 4.28694 4.24077 4.22334C4.62967 4.17105 5.12078 4.15945 5.78142 4.15689C5.75241 4.56841 5.74398 5.02802 5.74114 5.53828C5.73932 5.8662 6.00366 6.1335 6.33158 6.13533C6.65949 6.13715 6.9268 5.87281 6.92862 5.54489C6.93344 4.67921 6.95592 4.0656 7.04146 3.5999C7.12389 3.15118 7.25624 2.89145 7.44897 2.69872C7.66808 2.47961 7.9757 2.33676 8.5566 2.25866C9.15459 2.17826 9.94713 2.177 11.0835 2.177H11.8752C13.0115 2.177 13.8041 2.17826 14.4021 2.25866C14.983 2.33676 15.2906 2.47961 15.5097 2.69872C15.7288 2.91782 15.8717 3.22544 15.9498 3.80635C16.0302 4.40433 16.0314 5.19688 16.0314 6.33325V12.6666C16.0314 13.803 16.0302 14.5955 15.9498 15.1935C15.8717 15.7744 15.7288 16.082 15.5097 16.3011C15.2906 16.5202 14.983 16.6631 14.4021 16.7412C13.8041 16.8216 13.0115 16.8228 11.8752 16.8228H11.0835C9.94713 16.8228 9.15459 16.8216 8.5566 16.7412C7.9757 16.6631 7.66808 16.5202 7.44897 16.3011C7.25624 16.1084 7.12389 15.8487 7.04146 15.3999C6.95592 14.9342 6.93344 14.3206 6.92862 13.4549C6.9268 13.127 6.65949 12.8627 6.33158 12.8645C6.00366 12.8663 5.73932 13.1336 5.74114 13.4616Z" fill="white"/>
</svg>
