<svg width="17" height="18" viewBox="0 0 17 18" fill="none" xmlns="http://www.w3.org/2000/svg">
<path fill-rule="evenodd" clip-rule="evenodd" d="M8.41494 5.78886C6.77534 5.78886 5.44619 7.11801 5.44619 8.75761C5.44619 10.3972 6.77534 11.7264 8.41494 11.7264C10.0545 11.7264 11.3837 10.3972 11.3837 8.75761C11.3837 7.11801 10.0545 5.78886 8.41494 5.78886ZM6.63369 8.75761C6.63369 7.77385 7.43118 6.97636 8.41494 6.97636C9.3987 6.97636 10.1962 7.77385 10.1962 8.75761C10.1962 9.74137 9.3987 10.5389 8.41494 10.5389C7.43118 10.5389 6.63369 9.74137 6.63369 8.75761Z" fill="black"/>
<path fill-rule="evenodd" clip-rule="evenodd" d="M8.39494 0.247193C8.04307 0.247187 7.74934 0.247182 7.50818 0.263636C7.25715 0.280764 7.02002 0.317689 6.79013 0.412914C6.25668 0.633874 5.83286 1.0577 5.6119 1.59114C5.49687 1.86886 5.46571 2.16154 5.45382 2.47966C5.44426 2.73539 5.31519 2.94876 5.12473 3.05873C4.93427 3.16869 4.68496 3.17377 4.45871 3.05419C4.17725 2.90543 3.90821 2.78606 3.61018 2.74683C3.03772 2.67146 2.45877 2.82659 2.00069 3.17809C1.80328 3.32957 1.65274 3.51646 1.51238 3.7253C1.37756 3.92592 1.23069 4.18031 1.05477 4.48504L1.03477 4.51967C0.858836 4.82438 0.711963 5.07877 0.605637 5.29584C0.494952 5.5218 0.408368 5.74562 0.375889 5.99233C0.300523 6.56479 0.455653 7.14374 0.807151 7.60182C0.990119 7.84027 1.22797 8.01357 1.49749 8.18291C1.71423 8.3191 1.83451 8.53761 1.8345 8.7576C1.83448 8.97755 1.71421 9.19603 1.49749 9.3322C1.22794 9.50156 0.990059 9.67488 0.807073 9.91335C0.455576 10.3714 0.300446 10.9504 0.375811 11.5228C0.408291 11.7695 0.494874 11.9934 0.60556 12.2193C0.711884 12.4364 0.858754 12.6908 1.03469 12.9955L1.05469 13.0301C1.23062 13.3349 1.37748 13.5892 1.51231 13.7899C1.65266 13.9987 1.8032 14.1856 2.00061 14.3371C2.45869 14.6886 3.03764 14.8437 3.6101 14.7683C3.90811 14.7291 4.17714 14.6098 4.45859 14.461C4.68486 14.3414 4.93421 14.3465 5.12469 14.4565C5.31518 14.5664 5.44425 14.7798 5.45382 15.0356C5.46572 15.3537 5.49687 15.6464 5.6119 15.9241C5.83286 16.4575 6.25668 16.8813 6.79013 17.1023C7.02002 17.1975 7.25715 17.2345 7.50818 17.2516C7.74933 17.268 8.04307 17.268 8.39493 17.268H8.43493C8.78679 17.268 9.08053 17.268 9.32168 17.2516C9.57271 17.2345 9.80984 17.1975 10.0397 17.1023C10.5732 16.8813 10.997 16.4575 11.218 15.9241C11.333 15.6464 11.3641 15.3537 11.376 15.0355C11.3856 14.7798 11.5147 14.5664 11.7051 14.4564C11.8956 14.3465 12.1449 14.3414 12.3712 14.461C12.6527 14.6097 12.9217 14.7291 13.2197 14.7683C13.7921 14.8436 14.3711 14.6885 14.8292 14.337C15.0266 14.1855 15.1771 13.9986 15.3175 13.7898C15.4523 13.5892 15.5991 13.3348 15.7751 13.0301L15.7951 12.9955C15.971 12.6908 16.1179 12.4363 16.2242 12.2193C16.3349 11.9933 16.4215 11.7695 16.454 11.5228C16.5293 10.9503 16.3742 10.3714 16.0227 9.91329C15.8397 9.67483 15.6019 9.50152 15.3323 9.33216C15.1156 9.196 14.9954 8.97752 14.9954 8.75757C14.9954 8.53764 15.1156 8.31919 15.3323 8.18305C15.6019 8.01368 15.8398 7.84035 16.0228 7.60187C16.3743 7.14379 16.5294 6.56484 16.4541 5.99238C16.4216 5.74568 16.335 5.52186 16.2243 5.29589C16.118 5.07883 15.9711 4.82447 15.7952 4.51978L15.7752 4.48512C15.5993 4.18039 15.4524 3.92598 15.3176 3.72536C15.1772 3.51652 15.0267 3.32962 14.8292 3.17814C14.3712 2.82665 13.7922 2.67152 13.2198 2.74688C12.9217 2.78612 12.6527 2.90547 12.3713 3.05422C12.145 3.17381 11.8957 3.16873 11.7052 3.05875C11.5147 2.94877 11.3856 2.73538 11.376 2.47962C11.3641 2.16151 11.333 1.86884 11.218 1.59114C10.997 1.0577 10.5732 0.633874 10.0397 0.412913C9.80984 0.317689 9.57271 0.280764 9.32168 0.263636C9.08053 0.247182 8.78679 0.247187 8.43492 0.247193H8.39494ZM7.24457 1.51002C7.30565 1.48472 7.39844 1.46138 7.58902 1.44838C7.78493 1.43501 8.03794 1.43469 8.41493 1.43469C8.79192 1.43469 9.04493 1.43501 9.24084 1.44838C9.43142 1.46138 9.52421 1.48472 9.58529 1.51002C9.82777 1.61046 10.0204 1.8031 10.1209 2.04558C10.1525 2.12206 10.1788 2.2413 10.1894 2.524C10.2128 3.1513 10.5366 3.75529 11.1114 4.08716C11.6862 4.41902 12.3712 4.39743 12.9262 4.1041C13.1763 3.9719 13.2927 3.93503 13.3748 3.92422C13.635 3.88997 13.8981 3.96048 14.1063 4.12025C14.1588 4.1605 14.2254 4.22919 14.332 4.38773C14.4415 4.55071 14.5683 4.76967 14.7568 5.09615C14.9453 5.42264 15.0715 5.64191 15.1579 5.81826C15.2419 5.9898 15.2681 6.08183 15.2767 6.14738C15.311 6.40759 15.2405 6.67075 15.0807 6.87897C15.0303 6.94465 14.9401 7.02702 14.7006 7.17755C14.1691 7.51149 13.8079 8.09384 13.8079 8.75751C13.8078 9.42125 14.169 10.0037 14.7006 10.3377C14.9401 10.4882 15.0302 10.5705 15.0806 10.6362C15.2404 10.8444 15.3109 11.1076 15.2766 11.3678C15.268 11.4333 15.2418 11.5254 15.1578 11.6969C15.0714 11.8733 14.9452 12.0925 14.7567 12.419C14.5682 12.7455 14.4414 12.9645 14.3319 13.1274C14.2253 13.286 14.1587 13.3547 14.1063 13.3949C13.898 13.5547 13.6349 13.6252 13.3747 13.5909C13.2926 13.5801 13.1762 13.5433 12.9261 13.4111C12.3711 13.1177 11.6861 13.0962 11.1113 13.4281C10.5366 13.7599 10.2128 14.3639 10.1894 14.9912C10.1788 15.2739 10.1525 15.3931 10.1209 15.4696C10.0204 15.7121 9.82777 15.9048 9.58529 16.0052C9.52421 16.0305 9.43142 16.0538 9.24084 16.0668C9.04493 16.0802 8.79192 16.0805 8.41493 16.0805C8.03794 16.0805 7.78493 16.0802 7.58902 16.0668C7.39844 16.0538 7.30565 16.0305 7.24457 16.0052C7.00209 15.9048 6.80944 15.7121 6.70901 15.4696C6.67733 15.3932 6.65106 15.2739 6.64049 14.9912C6.61703 14.3639 6.29324 13.7599 5.71844 13.4281C5.14364 13.0962 4.45868 13.1178 3.90369 13.4111C3.65358 13.5433 3.53718 13.5802 3.4551 13.591C3.19489 13.6253 2.93173 13.5547 2.72352 13.395C2.67107 13.3547 2.60446 13.286 2.49791 13.1275C2.38838 12.9645 2.2616 12.7456 2.0731 12.4191C1.8846 12.0926 1.75838 11.8733 1.672 11.697C1.58797 11.5254 1.56178 11.4334 1.55315 11.3678C1.5189 11.1076 1.58941 10.8445 1.74918 10.6363C1.79958 10.5706 1.88971 10.4882 2.12926 10.3377C2.66077 10.0037 3.02196 9.42136 3.022 8.75766C3.02203 8.09388 2.66083 7.51143 2.12927 7.17743C1.88977 7.02694 1.79965 6.94459 1.74926 6.87891C1.58949 6.67069 1.51897 6.40754 1.55323 6.14733C1.56186 6.08178 1.58805 5.98975 1.67207 5.8182C1.75845 5.64186 1.88468 5.42258 2.07318 5.0961C2.26167 4.76961 2.38846 4.55066 2.49799 4.38768C2.60454 4.22914 2.67114 4.16044 2.72359 4.1202C2.93181 3.96042 3.19497 3.88991 3.45518 3.92417C3.53727 3.93498 3.65366 3.97185 3.90381 4.10406C4.45877 4.39739 5.1437 4.41898 5.71847 4.08713C6.29326 3.75529 6.61703 3.15132 6.64049 2.52404C6.65106 2.24131 6.67732 2.12207 6.70901 2.04558C6.80944 1.8031 7.00209 1.61046 7.24457 1.51002Z" fill="black"/>
</svg>
