<svg width="19" height="19" viewBox="0 0 19 19" fill="none" xmlns="http://www.w3.org/2000/svg">
<path fill-rule="evenodd" clip-rule="evenodd" d="M9.4999 6.53117C7.8603 6.53117 6.53115 7.86032 6.53115 9.49992C6.53115 11.1395 7.8603 12.4687 9.4999 12.4687C11.1395 12.4687 12.4686 11.1395 12.4686 9.49992C12.4686 7.86032 11.1395 6.53117 9.4999 6.53117ZM7.71865 9.49992C7.71865 8.51616 8.51614 7.71867 9.4999 7.71867C10.4837 7.71867 11.2811 8.51616 11.2811 9.49992C11.2811 10.4837 10.4837 11.2812 9.4999 11.2812C8.51614 11.2812 7.71865 10.4837 7.71865 9.49992Z" fill="white"/>
<path fill-rule="evenodd" clip-rule="evenodd" d="M9.4799 0.989502C9.12803 0.989496 8.8343 0.989492 8.59314 1.00595C8.34211 1.02307 8.10498 1.06 7.87509 1.15522C7.34164 1.37618 6.91782 1.80001 6.69686 2.33345C6.58183 2.61116 6.55068 2.90384 6.53878 3.22197C6.52922 3.4777 6.40016 3.69107 6.20969 3.80103C6.01923 3.911 5.76992 3.91608 5.54367 3.7965C5.26221 3.64773 4.99317 3.52837 4.69514 3.48914C4.12268 3.41377 3.54373 3.5689 3.08565 3.9204C2.88824 4.07188 2.7377 4.25877 2.59734 4.46761C2.46252 4.66823 2.31565 4.92262 2.13973 5.22734L2.11973 5.26198C1.9438 5.56669 1.79692 5.82108 1.6906 6.03814C1.57991 6.26411 1.49333 6.48793 1.46085 6.73464C1.38548 7.3071 1.54061 7.88605 1.89211 8.34413C2.07508 8.58257 2.31293 8.75588 2.58245 8.92522C2.79919 9.06141 2.91947 9.27992 2.91946 9.4999C2.91944 9.71986 2.79917 9.93834 2.58245 10.0745C2.3129 10.2439 2.07502 10.4172 1.89203 10.6557C1.54054 11.1137 1.38541 11.6927 1.46077 12.2651C1.49325 12.5119 1.57984 12.7357 1.69052 12.9616C1.79685 13.1787 1.94372 13.4331 2.11965 13.7378L2.13965 13.7724C2.31558 14.0772 2.46244 14.3316 2.59727 14.5322C2.73762 14.741 2.88816 14.9279 3.08557 15.0794C3.54365 15.4309 4.1226 15.586 4.69506 15.5106C4.99307 15.4714 5.2621 15.3521 5.54355 15.2033C5.76983 15.0837 6.01917 15.0888 6.20965 15.1988C6.40014 15.3088 6.52922 15.5221 6.53878 15.7779C6.55068 16.096 6.58183 16.3887 6.69686 16.6664C6.91782 17.1998 7.34164 17.6237 7.87509 17.8446C8.10498 17.9398 8.34211 17.9768 8.59314 17.9939C8.83429 18.0103 9.12803 18.0103 9.47989 18.0103H9.51989C9.87175 18.0103 10.1655 18.0103 10.4066 17.9939C10.6577 17.9768 10.8948 17.9398 11.1247 17.8446C11.6581 17.6237 12.082 17.1998 12.3029 16.6664C12.418 16.3887 12.4491 16.096 12.461 15.7778C12.4706 15.5221 12.5996 15.3087 12.7901 15.1988C12.9806 15.0888 13.2299 15.0837 13.4562 15.2033C13.7376 15.352 14.0066 15.4714 14.3046 15.5106C14.8771 15.586 15.4561 15.4308 15.9141 15.0793C16.1115 14.9279 16.2621 14.741 16.4024 14.5321C16.5373 14.3315 16.6841 14.0771 16.86 13.7724L16.88 13.7378C17.056 13.4331 17.2029 13.1786 17.3092 12.9616C17.4199 12.7356 17.5065 12.5118 17.5389 12.2651C17.6143 11.6926 17.4592 11.1137 17.1077 10.6556C16.9247 10.4171 16.6868 10.2438 16.4173 10.0745C16.2006 9.93831 16.0803 9.71983 16.0803 9.49988C16.0803 9.27995 16.2006 9.0615 16.4173 8.92536C16.6869 8.75599 16.9248 8.58266 17.1077 8.34418C17.4592 7.8861 17.6144 7.30715 17.539 6.73469C17.5065 6.48799 17.4199 6.26417 17.3093 6.0382C17.2029 5.82114 17.0561 5.56678 16.8802 5.26209L16.8602 5.22743C16.6842 4.9227 16.5373 4.66829 16.4025 4.46767C16.2622 4.25883 16.1116 4.07193 15.9142 3.92045C15.4561 3.56895 14.8772 3.41383 14.3047 3.48919C14.0067 3.52842 13.7377 3.64778 13.4562 3.79653C13.23 3.91612 12.9806 3.91104 12.7901 3.80106C12.5996 3.69108 12.4706 3.47769 12.461 3.22193C12.4491 2.90382 12.4179 2.61115 12.3029 2.33345C12.082 1.80001 11.6581 1.37618 11.1247 1.15522C10.8948 1.06 10.6577 1.02307 10.4066 1.00595C10.1655 0.989492 9.87175 0.989496 9.51988 0.989502H9.4799ZM8.32953 2.25233C8.39061 2.22703 8.4834 2.20369 8.67398 2.19069C8.86989 2.17732 9.1229 2.177 9.49989 2.177C9.87689 2.177 10.1299 2.17732 10.3258 2.19069C10.5164 2.20369 10.6092 2.22703 10.6703 2.25233C10.9127 2.35277 11.1054 2.54541 11.2058 2.78789C11.2375 2.86437 11.2638 2.98361 11.2743 3.26631C11.2978 3.89361 11.6216 4.4976 12.1964 4.82947C12.7712 5.16133 13.4561 5.13974 14.0111 4.84641C14.2612 4.71421 14.3776 4.67734 14.4597 4.66653C14.7199 4.63228 14.9831 4.70279 15.1913 4.86256C15.2438 4.90281 15.3104 4.9715 15.4169 5.13004C15.5264 5.29302 15.6532 5.51198 15.8417 5.83846C16.0302 6.16495 16.1564 6.38422 16.2428 6.56057C16.3269 6.73211 16.353 6.82414 16.3617 6.88969C16.3959 7.1499 16.3254 7.41306 16.1656 7.62128C16.1152 7.68696 16.0251 7.76933 15.7855 7.91986C15.254 8.2538 14.8929 8.83615 14.8928 9.49982C14.8928 10.1636 15.254 10.746 15.7855 11.08C16.025 11.2305 16.1152 11.3128 16.1656 11.3785C16.3253 11.5867 16.3958 11.8499 16.3616 12.1101C16.353 12.1756 16.3268 12.2677 16.2427 12.4392C16.1564 12.6156 16.0301 12.8348 15.8416 13.1613C15.6531 13.4878 15.5264 13.7068 15.4168 13.8697C15.3103 14.0283 15.2437 14.097 15.1912 14.1372C14.983 14.297 14.7198 14.3675 14.4596 14.3333C14.3776 14.3224 14.2612 14.2856 14.0111 14.1534C13.4561 13.8601 12.7711 13.8385 12.1963 14.1704C11.6215 14.5023 11.2978 15.1062 11.2743 15.7335C11.2638 16.0162 11.2375 16.1355 11.2058 16.212C11.1054 16.4544 10.9127 16.6471 10.6703 16.7475C10.6092 16.7728 10.5164 16.7961 10.3258 16.8091C10.1299 16.8225 9.87689 16.8228 9.49989 16.8228C9.1229 16.8228 8.86989 16.8225 8.67398 16.8091C8.4834 16.7961 8.39061 16.7728 8.32953 16.7475C8.08705 16.6471 7.89441 16.4544 7.79397 16.212C7.76229 16.1355 7.73602 16.0162 7.72545 15.7335C7.70199 15.1062 7.37821 14.5022 6.8034 14.1704C6.2286 13.8385 5.54364 13.8601 4.98865 14.1534C4.73854 14.2856 4.62214 14.3225 4.54006 14.3333C4.27986 14.3676 4.0167 14.2971 3.80848 14.1373C3.75603 14.097 3.68942 14.0283 3.58287 13.8698C3.47334 13.7068 3.34656 13.4879 3.15806 13.1614C2.96956 12.8349 2.84334 12.6156 2.75696 12.4393C2.67293 12.2677 2.64674 12.1757 2.63811 12.1101C2.60386 11.8499 2.67437 11.5868 2.83414 11.3786C2.88454 11.3129 2.97467 11.2305 3.21422 11.08C3.74574 10.746 4.10692 10.1637 4.10696 9.49997C4.10699 8.83619 3.74579 8.25373 3.21423 7.91974C2.97473 7.76925 2.88461 7.6869 2.83422 7.62122C2.67445 7.413 2.60393 7.14984 2.63819 6.88964C2.64682 6.82409 2.67301 6.73206 2.75704 6.56051C2.84341 6.38417 2.96964 6.16489 3.15814 5.83841C3.34663 5.51192 3.47342 5.29297 3.58295 5.12999C3.6895 4.97145 3.7561 4.90275 3.80855 4.86251C4.01677 4.70273 4.27993 4.63222 4.54014 4.66648C4.62223 4.67728 4.73863 4.71416 4.98877 4.84637C5.54373 5.1397 6.22866 5.16129 6.80344 4.82944C7.37822 4.4976 7.70199 3.89363 7.72545 3.26635C7.73602 2.98362 7.76229 2.86438 7.79397 2.78789C7.8944 2.54541 8.08705 2.35277 8.32953 2.25233Z" fill="white"/>
</svg>
