<svg width="17" height="17" viewBox="0 0 17 17" fill="none" xmlns="http://www.w3.org/2000/svg">
<g opacity="0.2">
<path fill-rule="evenodd" clip-rule="evenodd" d="M11.2565 6.95524C10.0711 6.95524 9.11016 7.8715 9.11016 9.00175C9.11016 10.132 10.0711 11.0483 11.2565 11.0483C12.4419 11.0483 13.4028 10.132 13.4028 9.00175C13.4028 7.8715 12.4419 6.95524 11.2565 6.95524ZM10.2809 9.00175C10.2809 8.488 10.7177 8.07152 11.2565 8.07152C11.7953 8.07152 12.2321 8.488 12.2321 9.00175C12.2321 9.51551 11.7953 9.93199 11.2565 9.93199C10.7177 9.93199 10.2809 9.51551 10.2809 9.00175Z" fill="black"/>
<path fill-rule="evenodd" clip-rule="evenodd" d="M6.37845 6.02501C6.37845 5.30576 6.98997 4.72268 7.74431 4.72268C8.49865 4.72268 9.11016 5.30576 9.11016 6.02501C9.11016 6.74426 8.49865 7.32734 7.74431 7.32734C6.98997 7.32734 6.37845 6.74426 6.37845 6.02501ZM7.74431 5.83896C7.63654 5.83896 7.54919 5.92226 7.54919 6.02501C7.54919 6.12776 7.63654 6.21106 7.74431 6.21106C7.85207 6.21106 7.93943 6.12776 7.93943 6.02501C7.93943 5.92226 7.85207 5.83896 7.74431 5.83896Z" fill="black"/>
<path d="M6.96382 9.74594C7.39487 9.74594 7.74431 9.41276 7.74431 9.00175C7.74431 8.59075 7.39487 8.25757 6.96382 8.25757C6.53277 8.25757 6.18333 8.59075 6.18333 9.00175C6.18333 9.41276 6.53277 9.74594 6.96382 9.74594Z" fill="black"/>
<path fill-rule="evenodd" clip-rule="evenodd" d="M2.67114 0.257568C3.641 0.257568 4.42723 1.00723 4.42723 1.93199C4.42723 2.19049 4.3658 2.43531 4.25609 2.65389L5.43142 3.77455C6.09176 3.25815 6.87167 2.87499 7.72703 2.6671C7.61313 2.44519 7.54919 2.19571 7.54919 1.93199C7.54919 1.00723 8.33542 0.257568 9.30528 0.257568C10.2751 0.257568 11.0614 1.00723 11.0614 1.93199C11.0614 2.21102 10.9898 2.4741 10.8632 2.70547C11.6994 2.92903 12.4648 3.31823 13.1177 3.83317L13.574 3.39808C13.4643 3.17949 13.4028 2.93467 13.4028 2.67617C13.4028 1.75142 14.1891 1.00175 15.1589 1.00175C16.1288 1.00175 16.915 1.75142 16.915 2.67617C16.915 3.60093 16.1288 4.35059 15.1589 4.35059C14.8878 4.35059 14.6311 4.29201 14.4018 4.18741L13.9455 4.6225C14.4431 5.19604 14.8287 5.86071 15.0697 6.58529C15.0993 6.58387 15.129 6.58315 15.1589 6.58315C16.1288 6.58315 16.915 7.33281 16.915 8.25757C16.915 9.18232 16.1288 9.93199 15.1589 9.93199C15.146 9.93199 15.1331 9.93185 15.1203 9.93159C14.8413 10.8548 14.3247 11.6796 13.6371 12.3427L13.6602 12.3648C13.8895 12.2602 14.1462 12.2016 14.4173 12.2016C15.3872 12.2016 16.1734 12.9513 16.1734 13.876C16.1734 14.8008 15.3872 15.5504 14.4173 15.5504C13.4475 15.5504 12.6612 14.8008 12.6612 13.876C12.6612 13.6175 12.7227 13.3727 12.8324 13.1541L12.7318 13.0582C12.1729 13.4174 11.546 13.6884 10.8724 13.8507C10.583 14.3952 9.99052 14.7692 9.30519 14.7692C8.59885 14.7692 7.99113 14.3719 7.71222 13.8002C7.07563 13.626 6.48058 13.3557 5.94565 13.007C5.9212 13.0463 5.89125 13.0834 5.85581 13.1172L5.04898 13.8865C5.1509 14.0986 5.20772 14.3346 5.20772 14.5831C5.20772 15.5079 4.42149 16.2576 3.45162 16.2576C2.48176 16.2576 1.69553 15.5079 1.69553 14.5831C1.69553 13.6584 2.48176 12.9087 3.45162 12.9087C3.73307 12.9087 3.99906 12.9719 4.23485 13.0841L5.02798 12.3279C5.03713 12.3191 5.04651 12.3107 5.0561 12.3027C4.32094 11.6007 3.77048 10.7228 3.48235 9.74302C3.2397 9.86373 2.96378 9.93199 2.67114 9.93199C1.70127 9.93199 0.915039 9.18232 0.915039 8.25757C0.915039 7.33281 1.70127 6.58315 2.67114 6.58315C2.94772 6.58315 3.20937 6.64412 3.44211 6.75273C3.66014 5.93714 4.06199 5.19352 4.60358 4.56388L3.42826 3.44322C3.19901 3.54783 2.94225 3.60641 2.67114 3.60641C1.70127 3.60641 0.915039 2.85674 0.915039 1.93199C0.915039 1.00723 1.70127 0.257568 2.67114 0.257568ZM3.2565 1.93199C3.2565 1.62373 2.99443 1.37385 2.67114 1.37385C2.34785 1.37385 2.08577 1.62373 2.08577 1.93199C2.08577 2.24024 2.34785 2.49013 2.67114 2.49013C2.99443 2.49013 3.2565 2.24024 3.2565 1.93199ZM9.39427 12.9087C12.0525 12.9087 14.1833 10.877 14.1833 8.34242L14.1832 8.30411C14.1614 5.73192 11.9541 3.62732 9.25647 3.60656C6.56619 3.58586 4.40569 5.64587 4.4274 8.21103C4.44917 10.7832 6.65643 12.8878 9.35409 12.9086C9.3675 12.9087 9.38089 12.9087 9.39427 12.9087ZM15.3541 7.73119C15.5814 7.80781 15.7443 8.01455 15.7443 8.25757C15.7443 8.50059 15.5814 8.70733 15.3541 8.78395V7.73119ZM15.1589 2.11803C14.8357 2.11803 14.5736 2.36792 14.5736 2.67617C14.5736 2.98443 14.8357 3.23431 15.1589 3.23431C15.4822 3.23431 15.7443 2.98443 15.7443 2.67617C15.7443 2.36792 15.4822 2.11803 15.1589 2.11803ZM2.67114 7.69943C2.99443 7.69943 3.2565 7.94932 3.2565 8.25757C3.2565 8.56582 2.99443 8.81571 2.67114 8.81571C2.34785 8.81571 2.08577 8.56582 2.08577 8.25757C2.08577 7.94932 2.34785 7.69943 2.67114 7.69943ZM13.832 13.876C13.832 14.1843 14.094 14.4342 14.4173 14.4342C14.7406 14.4342 15.0027 14.1843 15.0027 13.876C15.0027 13.5678 14.7406 13.3179 14.4173 13.3179C14.094 13.3179 13.832 13.5678 13.832 13.876ZM3.45162 15.1413C3.77491 15.1413 4.03699 14.8914 4.03699 14.5831C4.03699 14.2749 3.77491 14.025 3.45162 14.025C3.12834 14.025 2.86626 14.2749 2.86626 14.5831C2.86626 14.8914 3.12834 15.1413 3.45162 15.1413ZM8.71992 1.93199C8.71992 1.62373 8.98199 1.37385 9.30528 1.37385C9.62857 1.37385 9.89065 1.62373 9.89065 1.93199C9.89065 2.24024 9.62857 2.49013 9.30528 2.49013C8.98199 2.49013 8.71992 2.24024 8.71992 1.93199Z" fill="black"/>
</g>
</svg>
