<svg width="19" height="17" viewBox="0 0 19 17" fill="none" xmlns="http://www.w3.org/2000/svg">
<path d="M14.3104 4.15602C14.3104 3.81618 14.0293 3.54068 13.6825 3.54068C13.3357 3.54068 13.0546 3.81618 13.0546 4.15602V5.18159H12.0081C11.6613 5.18159 11.3802 5.45708 11.3802 5.79692C11.3802 6.13676 11.6613 6.41225 12.0081 6.41225L13.0546 6.41225V7.43779C13.0546 7.77763 13.3357 8.05313 13.6825 8.05313C14.0293 8.05313 14.3104 7.77763 14.3104 7.43779V6.41225H15.3569C15.7037 6.41225 15.9848 6.13676 15.9848 5.79692C15.9848 5.45708 15.7037 5.18159 15.3569 5.18159H14.3104V4.15602Z" fill="black"/>
<path fill-rule="evenodd" clip-rule="evenodd" d="M18.915 6.05737C18.915 3.32907 17.6739 1.29239 15.7428 0.551351C13.9547 -0.134755 11.8087 0.378583 9.91504 2.11572C8.0214 0.378583 5.87533 -0.134756 4.08731 0.551355C2.15613 1.2924 0.915039 3.32909 0.915039 6.0574C0.915039 7.795 1.86143 9.50498 3.03928 10.9771C4.22924 12.4644 5.72624 13.7962 6.97571 14.7898L7.08801 14.8792C8.09315 15.6797 8.81877 16.2576 9.91504 16.2576C11.0113 16.2576 11.7369 15.6797 12.7421 14.8792L12.8544 14.7898C14.1038 13.7962 15.6008 12.4644 16.7908 10.9772C17.9687 9.505 18.915 7.79501 18.915 6.05737ZM10.3737 3.40642C12.1417 1.55339 13.9747 1.19456 15.2849 1.6973C16.5979 2.20114 17.6592 3.67431 17.6592 6.05737C17.6592 7.37945 16.9231 8.81732 15.8025 10.2178C14.6941 11.6032 13.2769 12.8689 12.0631 13.8342C10.8972 14.7613 10.5202 15.0269 9.91505 15.0269C9.30985 15.0269 8.93288 14.7613 7.76703 13.8342C6.55318 12.8689 5.13596 11.6032 4.02754 10.2178C2.90702 8.81729 2.17085 7.37944 2.17085 6.0574C2.17085 3.67432 3.23215 2.20115 4.5452 1.6973C5.85534 1.19456 7.68839 1.55339 9.45639 3.40642C9.57512 3.53086 9.74119 3.6015 9.91504 3.6015C10.0889 3.6015 10.255 3.53086 10.3737 3.40642Z" fill="black"/>
</svg>
