<svg width="28" height="22" viewBox="0 0 28 22" fill="none" xmlns="http://www.w3.org/2000/svg">
<path fill-rule="evenodd" clip-rule="evenodd" d="M11.4295 0.0625004H16.5705C18.8677 0.0624806 20.6873 0.0624648 22.1113 0.253919C23.5768 0.450954 24.763 0.8661 25.6984 1.80155C26.6339 2.73701 27.049 3.92319 27.2461 5.38872C27.4375 6.81274 27.4375 8.63229 27.4375 10.9295V11.0705C27.4375 13.3677 27.4375 15.1873 27.2461 16.6113C27.049 18.0768 26.6339 19.263 25.6984 20.1984C24.763 21.1339 23.5768 21.549 22.1113 21.7461C20.6873 21.9375 18.8677 21.9375 16.5705 21.9375H11.4295C9.13229 21.9375 7.31274 21.9375 5.88872 21.7461C4.42319 21.549 3.23701 21.1339 2.30155 20.1984C1.3661 19.263 0.950954 18.0768 0.753919 16.6113C0.562465 15.1873 0.562481 13.3677 0.5625 11.0705V10.9295C0.562481 8.63228 0.562465 6.81274 0.753919 5.38872C0.950954 3.92319 1.3661 2.73701 2.30155 1.80155C3.23701 0.8661 4.42319 0.450954 5.88872 0.253919C7.31274 0.0624648 9.13228 0.0624806 11.4295 0.0625004ZM6.13856 2.1122C4.88095 2.28128 4.15639 2.59837 3.62738 3.12738C3.09837 3.65639 2.78128 4.38095 2.6122 5.63856C2.43949 6.92314 2.4375 8.61648 2.4375 11C2.4375 13.3835 2.43949 15.0769 2.6122 16.3614C2.78128 17.6191 3.09837 18.3436 3.62738 18.8726C4.15639 19.4016 4.88095 19.7187 6.13856 19.8878C7.42314 20.0605 9.11647 20.0625 11.5 20.0625H16.5C18.8835 20.0625 20.5769 20.0605 21.8614 19.8878C23.1191 19.7187 23.8436 19.4016 24.3726 18.8726C24.9016 18.3436 25.2187 17.6191 25.3878 16.3614C25.5605 15.0769 25.5625 13.3835 25.5625 11C25.5625 8.61648 25.5605 6.92314 25.3878 5.63856C25.2187 4.38095 24.9016 3.65639 24.3726 3.12738C23.8436 2.59837 23.1191 2.28128 21.8614 2.1122C20.5769 1.93949 18.8835 1.9375 16.5 1.9375H11.5C9.11648 1.9375 7.42314 1.93949 6.13856 2.1122ZM5.77979 5.39983C6.11126 5.00207 6.70241 4.94833 7.10017 5.27979L9.79879 7.52864C10.965 8.50048 11.7747 9.17302 12.4582 9.61266C13.1199 10.0382 13.5687 10.1811 14 10.1811C14.4313 10.1811 14.8801 10.0382 15.5418 9.61266C16.2253 9.17302 17.035 8.50047 18.2012 7.52864L20.8998 5.27979C21.2976 4.94833 21.8887 5.00207 22.2202 5.39983C22.5517 5.79759 22.4979 6.38874 22.1002 6.72021L19.3546 9.00822C18.2466 9.93154 17.3486 10.6799 16.556 11.1897C15.7304 11.7207 14.9263 12.0561 14 12.0561C13.0737 12.0561 12.2696 11.7207 11.444 11.1897C10.6514 10.6799 9.75339 9.93154 8.64545 9.00823L5.89983 6.72021C5.50207 6.38874 5.44833 5.79759 5.77979 5.39983Z" fill="black"/>
</svg>
