<svg width="17" height="17" viewBox="0 0 17 17" fill="none" xmlns="http://www.w3.org/2000/svg">
<path d="M6.37508 11.3334C6.37508 11.7246 6.05795 12.0417 5.66675 12.0417C5.27555 12.0417 4.95842 11.7246 4.95842 11.3334C4.95842 10.9422 5.27555 10.6251 5.66675 10.6251C6.05795 10.6251 6.37508 10.9422 6.37508 11.3334Z" fill="black"/>
<path d="M9.20842 11.3334C9.20842 11.7246 8.89128 12.0417 8.50008 12.0417C8.10888 12.0417 7.79175 11.7246 7.79175 11.3334C7.79175 10.9422 8.10888 10.6251 8.50008 10.6251C8.89128 10.6251 9.20842 10.9422 9.20842 11.3334Z" fill="black"/>
<path d="M11.3334 12.0417C11.7246 12.0417 12.0417 11.7246 12.0417 11.3334C12.0417 10.9422 11.7246 10.6251 11.3334 10.6251C10.9422 10.6251 10.6251 10.9422 10.6251 11.3334C10.6251 11.7246 10.9422 12.0417 11.3334 12.0417Z" fill="black"/>
<path fill-rule="evenodd" clip-rule="evenodd" d="M3.71883 5.66675V6.58954C3.55816 6.60084 3.40672 6.61555 3.26426 6.6347C2.62668 6.72042 2.08985 6.90381 1.6635 7.33016C1.23714 7.75652 1.05376 8.29335 0.968036 8.93092C0.885473 9.54502 0.885484 10.3258 0.885498 11.2945V11.3723C0.885484 12.341 0.885473 13.1218 0.968036 13.7359C1.05376 14.3735 1.23714 14.9103 1.6635 15.3367C2.08985 15.763 2.62668 15.9464 3.26426 16.0321C3.87836 16.1147 4.65917 16.1147 5.62788 16.1147H11.3723C12.341 16.1147 13.1218 16.1147 13.7359 16.0321C14.3735 15.9464 14.9103 15.763 15.3367 15.3367C15.763 14.9103 15.9464 14.3735 16.0321 13.7359C16.1147 13.1218 16.1147 12.341 16.1147 11.3723V11.2945C16.1147 10.3258 16.1147 9.54503 16.0321 8.93092C15.9464 8.29335 15.763 7.75652 15.3367 7.33016C14.9103 6.90381 14.3735 6.72042 13.7359 6.6347C13.5934 6.61555 13.442 6.60084 13.2813 6.58954V5.66675C13.2813 3.02614 11.1407 0.885498 8.50008 0.885498C5.85947 0.885498 3.71883 3.02614 3.71883 5.66675ZM8.50008 1.948C6.44627 1.948 4.78133 3.61294 4.78133 5.66675V6.5546C5.04589 6.55216 5.32783 6.55216 5.62778 6.55216H11.3723C11.6722 6.55216 11.9543 6.55216 12.2188 6.5546V5.66675C12.2188 3.61294 10.5539 1.948 8.50008 1.948ZM3.40583 7.68773C2.88608 7.75761 2.61084 7.88542 2.4148 8.08146C2.21876 8.2775 2.09094 8.55274 2.02106 9.0725C1.94913 9.60754 1.948 10.3167 1.948 11.3334C1.948 12.3502 1.94913 13.0593 2.02106 13.5943C2.09094 14.1141 2.21876 14.3893 2.4148 14.5854C2.61084 14.7814 2.88608 14.9092 3.40583 14.9791C3.94087 15.051 4.65 15.0522 5.66675 15.0522H11.3334C12.3502 15.0522 13.0593 15.051 13.5943 14.9791C14.1141 14.9092 14.3893 14.7814 14.5854 14.5854C14.7814 14.3893 14.9092 14.1141 14.9791 13.5943C15.051 13.0593 15.0522 12.3502 15.0522 11.3334C15.0522 10.3167 15.051 9.60754 14.9791 9.0725C14.9092 8.55274 14.7814 8.2775 14.5854 8.08146C14.3893 7.88542 14.1141 7.75761 13.5943 7.68773C13.0593 7.61579 12.3502 7.61467 11.3334 7.61467H5.66675C4.65 7.61467 3.94087 7.61579 3.40583 7.68773Z" fill="black"/>
</svg>
