<svg width="28" height="28" viewBox="0 0 28 28" fill="none" xmlns="http://www.w3.org/2000/svg">
<path fill-rule="evenodd" clip-rule="evenodd" d="M13.375 2.4375C7.33439 2.4375 2.4375 7.33439 2.4375 13.375C2.4375 19.4156 7.33439 24.3125 13.375 24.3125C19.4156 24.3125 24.3125 19.4156 24.3125 13.375C24.3125 7.33439 19.4156 2.4375 13.375 2.4375ZM0.5625 13.375C0.5625 6.29885 6.29885 0.5625 13.375 0.5625C20.4511 0.5625 26.1875 6.29885 26.1875 13.375C26.1875 16.5756 25.0139 19.5022 23.0736 21.7478L27.1629 25.8371C27.529 26.2032 27.529 26.7968 27.1629 27.1629C26.7968 27.529 26.2032 27.529 25.8371 27.1629L21.7478 23.0736C19.5022 25.0139 16.5756 26.1875 13.375 26.1875C6.29885 26.1875 0.5625 20.4511 0.5625 13.375Z" fill="black"/>
</svg>
