<svg width="13" height="13" viewBox="0 0 13 13" fill="none" xmlns="http://www.w3.org/2000/svg">
<path fill-rule="evenodd" clip-rule="evenodd" d="M1.25536 1.41313C2.44541 0.223082 4.45363 0.313549 5.28225 1.7983L5.74197 2.62204C6.28308 3.59162 6.05249 4.81497 5.26036 5.61679C5.24981 5.63124 5.1939 5.71265 5.18693 5.85489C5.17804 6.03645 5.24252 6.45634 5.89308 7.10689C6.54342 7.75723 6.96325 7.82187 7.14488 7.81304C7.28724 7.80611 7.36872 7.75017 7.38319 7.7396C8.18501 6.94748 9.40835 6.71689 10.3779 7.258L11.2017 7.71772C12.6864 8.54634 12.7769 10.5546 11.5868 11.7446C10.9503 12.3812 10.1039 12.9468 9.10925 12.9845C7.63526 13.0403 5.1878 12.6597 2.76404 10.2359C0.340272 7.81217 -0.0403766 5.36471 0.0155021 3.89072C0.0532087 2.89608 0.618808 2.04968 1.25536 1.41313ZM4.35446 2.31609C3.93015 1.55581 2.78996 1.38114 2.00666 2.16443C1.45746 2.71364 1.10041 3.31984 1.07724 3.93097C1.03064 5.16017 1.33412 7.30341 3.51534 9.48463C5.69655 11.6659 7.8398 11.9693 9.069 11.9227C9.68013 11.8996 10.2863 11.5425 10.8355 10.9933C11.6188 10.21 11.4442 9.06981 10.6839 8.64551L9.86014 8.18579C9.34773 7.89982 8.62797 7.99737 8.12271 8.50262L8.12255 8.50278C8.07291 8.55238 7.75713 8.84701 7.19651 8.87428C6.6226 8.9022 5.92791 8.64433 5.14178 7.85819C4.35538 7.0718 4.0976 6.37692 4.1257 5.80293C4.15315 5.24228 4.44798 4.92664 4.49731 4.8773L4.49733 4.87728C5.0026 4.37202 5.10015 3.65225 4.81418 3.13983L4.35446 2.31609Z" fill="black"/>
</svg>
